<?xml version="1.0" encoding="UTF-8" standalone="no"?>
<!-- Created with Inkscape (http://www.inkscape.org/) -->

<svg
   xmlns:dc="http://purl.org/dc/elements/1.1/"
   xmlns:cc="http://creativecommons.org/ns#"
   xmlns:rdf="http://www.w3.org/1999/02/22-rdf-syntax-ns#"
   xmlns:svg="http://www.w3.org/2000/svg"
   xmlns="http://www.w3.org/2000/svg"
   xmlns:sodipodi="http://sodipodi.sourceforge.net/DTD/sodipodi-0.dtd"
   xmlns:inkscape="http://www.inkscape.org/namespaces/inkscape"
   id="svg6272"
   version="1.1"
   inkscape:version="0.48.3.1 r9886"
   width="744.09447"
   height="1052.3622"
   xml:space="preserve"
   sodipodi:docname="basket mandala-4up.pdf"><metadata
     id="metadata6278"><rdf:RDF><cc:Work
         rdf:about=""><dc:format>image/svg+xml</dc:format><dc:type
           rdf:resource="http://purl.org/dc/dcmitype/StillImage" /><dc:title></dc:title></cc:Work></rdf:RDF></metadata><defs
     id="defs6276" /><sodipodi:namedview
     pagecolor="#ffffff"
     bordercolor="#666666"
     borderopacity="1"
     objecttolerance="10"
     gridtolerance="10"
     guidetolerance="10"
     inkscape:pageopacity="0"
     inkscape:pageshadow="2"
     inkscape:window-width="1303"
     inkscape:window-height="817"
     id="namedview6274"
     showgrid="false"
     inkscape:zoom="0.79170475"
     inkscape:cx="404.73276"
     inkscape:cy="504.85439"
     inkscape:window-x="0"
     inkscape:window-y="35"
     inkscape:window-maximized="0"
     inkscape:current-layer="g6280" /><g
     id="g6280"
     inkscape:groupmode="layer"
     inkscape:label="basket mandala-4up"
     transform="matrix(1.25,0,0,-1.25,0,1052.3622)"><g
       id="g7352"><g
         id="g6284"
         transform="matrix(1,0,0,-1,0,841.88977)"><path
           d="m 560.703,642.734 c 0,65.383 -53.004,118.383 -118.383,118.383 -65.382,0 -118.386,-53 -118.386,-118.383 0,-65.379 53.004,-118.382 118.386,-118.382 65.379,0 118.383,53.003 118.383,118.382 z"
           style="fill:none;stroke:#000000;stroke-width:0.83367801;stroke-linecap:butt;stroke-linejoin:miter;stroke-miterlimit:4;stroke-opacity:1;stroke-dasharray:none"
           id="path6286"
           inkscape:connector-curvature="0" /></g><g
         id="g6288"
         transform="matrix(1,0,0,-1,0,841.88977)"><path
           d="m 560.703,642.734 c 0,65.383 -53.004,118.383 -118.383,118.383 -65.382,0 -118.386,-53 -118.386,-118.383 0,-65.379 53.004,-118.382 118.386,-118.382 65.379,0 118.383,53.003 118.383,118.382 z"
           style="fill:none;stroke:#000000;stroke-width:0.83367801;stroke-linecap:butt;stroke-linejoin:miter;stroke-miterlimit:4;stroke-opacity:1;stroke-dasharray:none"
           id="path6290"
           inkscape:connector-curvature="0" /></g><g
         id="g6292"
         transform="matrix(0.92593,0,0,-1,0,841.88977)"><path
           d="m 567.854,559.367 c 0,46.102 -40.365,83.473 -90.15,83.473 -49.79,0 -90.15,-37.371 -90.15,-83.473"
           style="fill:none;stroke:#000000;stroke-width:0.866382;stroke-linecap:butt;stroke-linejoin:miter;stroke-miterlimit:4;stroke-opacity:1;stroke-dasharray:none"
           id="path6294"
           inkscape:connector-curvature="0" /></g><g
         id="g6296"
         transform="matrix(0.92593,0,0,-1,0,841.88977)"><path
           d="m 387.554,726.102 c 0,-46.098 40.36,-83.473 90.15,-83.473 49.785,0 90.15,37.375 90.15,83.473"
           style="fill:none;stroke:#000000;stroke-width:0.866382;stroke-linecap:butt;stroke-linejoin:miter;stroke-miterlimit:4;stroke-opacity:1;stroke-dasharray:none"
           id="path6298"
           inkscape:connector-curvature="0" /></g><g
         id="g6300"
         transform="matrix(0.92593,0.534584,0.577353,-1,0,841.88977)"><path
           d="m 135.772,601.383 c -0.003,39.923 -34.955,72.29 -78.074,72.29 -43.118,-0.004 -78.073,-32.366 -78.073,-72.292"
           style="fill:none;stroke:#000000;stroke-width:0.75030798;stroke-linecap:butt;stroke-linejoin:miter;stroke-miterlimit:4;stroke-opacity:1;stroke-dasharray:none"
           id="path6302"
           inkscape:connector-curvature="0" /></g><g
         id="g6304"
         transform="matrix(0.92593,0.534584,0.577353,-1,0,841.88977)"><path
           d="m -20.373,745.781 c 0,-39.926 34.955,-72.29 78.071,-72.292 43.12,0 78.074,32.366 78.073,72.291"
           style="fill:none;stroke:#000000;stroke-width:0.75030798;stroke-linecap:butt;stroke-linejoin:miter;stroke-miterlimit:4;stroke-opacity:1;stroke-dasharray:none"
           id="path6306"
           inkscape:connector-curvature="0" /></g><g
         id="g6308"
         transform="matrix(0.534584,0.925922,1,-0.577348,0,841.88977)"><path
           d="m -235.693,537.853 c 0,39.926 -34.954,72.291 -78.074,72.292 -43.116,-0.002 -78.071,-32.366 -78.071,-72.292"
           style="fill:none;stroke:#000000;stroke-width:0.75031197;stroke-linecap:butt;stroke-linejoin:miter;stroke-miterlimit:4;stroke-opacity:1;stroke-dasharray:none"
           id="path6310"
           inkscape:connector-curvature="0" /></g><g
         id="g6312"
         transform="matrix(0.534584,0.925922,1,-0.577348,0,841.88977)"><path
           d="m -391.838,682.251 c -0.003,-39.924 34.954,-72.291 78.071,-72.29 43.12,0 78.074,32.365 78.075,72.29"
           style="fill:none;stroke:#000000;stroke-width:0.75031197;stroke-linecap:butt;stroke-linejoin:miter;stroke-miterlimit:4;stroke-opacity:1;stroke-dasharray:none"
           id="path6314"
           inkscape:connector-curvature="0" /></g><g
         id="g6316"
         transform="matrix(0,0.925922,1,0,0,841.88977)"><path
           d="m -604.005,358.949 c 0,46.102 -40.366,83.473 -90.151,83.473 -49.79,0 -90.151,-37.371 -90.151,-83.473"
           style="fill:none;stroke:#000000;stroke-width:0.866386;stroke-linecap:butt;stroke-linejoin:miter;stroke-miterlimit:4;stroke-opacity:1;stroke-dasharray:none"
           id="path6318"
           inkscape:connector-curvature="0" /></g><g
         id="g6320"
         transform="matrix(0,0.925922,1,0,0,841.88977)"><path
           d="m -784.307,525.688 c 0,-46.102 40.361,-83.473 90.151,-83.473 49.785,0 90.151,37.371 90.151,83.473"
           style="fill:none;stroke:#000000;stroke-width:0.866386;stroke-linecap:butt;stroke-linejoin:miter;stroke-miterlimit:4;stroke-opacity:1;stroke-dasharray:none"
           id="path6322"
           inkscape:connector-curvature="0" /></g><g
         id="g6324"
         transform="matrix(-0.534584,0.925922,1,0.577348,0,841.88977)"><path
           d="m -649.396,-18.774 c 0,39.926 -34.955,72.291 -78.075,72.29 -43.117,0.002 -78.071,-32.364 -78.07,-72.29"
           style="fill:none;stroke:#000000;stroke-width:0.75031197;stroke-linecap:butt;stroke-linejoin:miter;stroke-miterlimit:4;stroke-opacity:1;stroke-dasharray:none"
           id="path6326"
           inkscape:connector-curvature="0" /></g><g
         id="g6328"
         transform="matrix(-0.57735,0.999995,1,0.577348,0,841.88977)"><path
           d="m -746.227,125.826 c 0,-39.926 32.366,-72.29 72.292,-72.29 39.922,-0.001 72.29,32.366 72.287,72.29"
           style="fill:none;stroke:#000000;stroke-width:0.72198802;stroke-linecap:butt;stroke-linejoin:miter;stroke-miterlimit:4;stroke-opacity:1;stroke-dasharray:none"
           id="path6330"
           inkscape:connector-curvature="0" /></g><g
         id="g6332"
         transform="matrix(-0.92593,0.534584,0.577353,1,0,841.88977)"><path
           d="m -580.781,-362.723 c 0,39.926 -34.954,72.291 -78.073,72.291 -43.12,0 -78.071,-32.366 -78.075,-72.29"
           style="fill:none;stroke:#000000;stroke-width:0.75030798;stroke-linecap:butt;stroke-linejoin:miter;stroke-miterlimit:4;stroke-opacity:1;stroke-dasharray:none"
           id="path6334"
           inkscape:connector-curvature="0" /></g><g
         id="g6336"
         transform="matrix(-0.92593,0.534584,0.577353,1,0,841.88977)"><path
           d="m -736.927,-218.324 c -10e-4,-39.926 34.955,-72.288 78.073,-72.291 43.116,0.001 78.07,32.366 78.071,72.291"
           style="fill:none;stroke:#000000;stroke-width:0.75030798;stroke-linecap:butt;stroke-linejoin:miter;stroke-miterlimit:4;stroke-opacity:1;stroke-dasharray:none"
           id="path6338"
           inkscape:connector-curvature="0" /></g><g
         id="g6340"
         transform="matrix(0.893134,0,0,-1,0,841.88977)"><path
           d="m 541.007,642.734 c 0,22.575 -20.491,40.875 -45.762,40.875 -25.275,0 -45.766,-18.3 -45.766,-40.875 0,-22.57 20.491,-40.871 45.766,-40.871 25.271,0 45.762,18.301 45.762,40.871 z"
           style="fill:none;stroke:#000000;stroke-width:0.88214499;stroke-linecap:butt;stroke-linejoin:miter;stroke-miterlimit:4;stroke-opacity:1;stroke-dasharray:none"
           id="path6342"
           inkscape:connector-curvature="0" /></g><g
         id="g6344"
         transform="matrix(0.893134,0,0,-1,0,841.88977)"><path
           d="m 590.927,642.734 c 0,47.2 -42.839,85.461 -95.682,85.461 -52.847,0 -95.686,-38.261 -95.686,-85.461 0,-47.195 42.839,-85.457 95.686,-85.457 52.843,0 95.682,38.262 95.682,85.457 z"
           style="fill:none;stroke:#000000;stroke-width:0.88214499;stroke-linecap:butt;stroke-linejoin:miter;stroke-miterlimit:4;stroke-opacity:1;stroke-dasharray:none"
           id="path6346"
           inkscape:connector-curvature="0" /></g><g
         id="g6348"
         transform="matrix(0.893134,0,0,-1,0,841.88977)"><path
           d="m 518.294,642.734 c 0,11.371 -10.321,20.586 -23.049,20.586 -12.731,0 -23.049,-9.215 -23.049,-20.586 0,-11.367 10.318,-20.586 23.049,-20.586 12.728,0 23.049,9.219 23.049,20.586 z"
           style="fill:#ffffff;fill-opacity:1;fill-rule:nonzero;stroke:#000000;stroke-width:0.88214499;stroke-linecap:butt;stroke-linejoin:miter;stroke-miterlimit:4;stroke-opacity:1;stroke-dasharray:none"
           id="path6350"
           inkscape:connector-curvature="0" /></g><g
         id="g6352"
         transform="matrix(0.893134,0,0,-1,0,841.88977)"><path
           d="m 507.413,642.734 c 0,6.004 -5.45,10.868 -12.168,10.868 -6.722,0 -12.172,-4.864 -12.172,-10.868 0,-6 5.45,-10.867 12.172,-10.867 6.718,0 12.168,4.867 12.168,10.867 z"
           style="fill:#ffffff;fill-opacity:1;fill-rule:nonzero;stroke:#000000;stroke-width:0.46570301;stroke-linecap:butt;stroke-linejoin:miter;stroke-miterlimit:4;stroke-opacity:1;stroke-dasharray:none"
           id="path6354"
           inkscape:connector-curvature="0" /></g></g><g
       id="g7314"><g
         id="g6356"
         transform="matrix(1,0,0,-1,0,841.88977)"><path
           d="m 271.102,642.734 c 0,65.383 -53,118.383 -118.383,118.383 -65.383,0 -118.383,-53 -118.383,-118.383 0,-65.379 53,-118.382 118.383,-118.382 65.383,0 118.383,53.003 118.383,118.382 z"
           style="fill:none;stroke:#000000;stroke-width:0.83367801;stroke-linecap:butt;stroke-linejoin:miter;stroke-miterlimit:4;stroke-opacity:1;stroke-dasharray:none"
           id="path6358"
           inkscape:connector-curvature="0" /></g><g
         id="g6360"
         transform="matrix(1,0,0,-1,0,841.88977)"><path
           d="m 271.102,642.734 c 0,65.383 -53,118.383 -118.383,118.383 -65.383,0 -118.383,-53 -118.383,-118.383 0,-65.379 53,-118.382 118.383,-118.382 65.383,0 118.383,53.003 118.383,118.382 z"
           style="fill:none;stroke:#000000;stroke-width:0.83367801;stroke-linecap:butt;stroke-linejoin:miter;stroke-miterlimit:4;stroke-opacity:1;stroke-dasharray:none"
           id="path6362"
           inkscape:connector-curvature="0" /></g><g
         id="g6364"
         transform="matrix(0.92593,0,0,-1,0,841.88977)"><path
           d="m 255.086,559.367 c 0,46.102 -40.361,83.473 -90.151,83.473 -49.789,0 -90.15,-37.371 -90.15,-83.473"
           style="fill:none;stroke:#000000;stroke-width:0.866382;stroke-linecap:butt;stroke-linejoin:miter;stroke-miterlimit:4;stroke-opacity:1;stroke-dasharray:none"
           id="path6366"
           inkscape:connector-curvature="0" /></g><g
         id="g6368"
         transform="matrix(0.92593,0,0,-1,0,841.88977)"><path
           d="m 74.785,726.102 c 0,-46.098 40.361,-83.473 90.15,-83.473 49.79,0 90.151,37.375 90.151,83.473"
           style="fill:none;stroke:#000000;stroke-width:0.866382;stroke-linecap:butt;stroke-linejoin:miter;stroke-miterlimit:4;stroke-opacity:1;stroke-dasharray:none"
           id="path6370"
           inkscape:connector-curvature="0" /></g><g
         id="g6372"
         transform="matrix(0.92593,0.534584,0.577353,-1,0,841.88977)"><path
           d="m -98.804,475.982 c 0,39.926 -34.955,72.29 -78.074,72.29 -43.115,-0.002 -78.07,-32.364 -78.07,-72.289"
           style="fill:none;stroke:#000000;stroke-width:0.75030798;stroke-linecap:butt;stroke-linejoin:miter;stroke-miterlimit:4;stroke-opacity:1;stroke-dasharray:none"
           id="path6374"
           inkscape:connector-curvature="0" /></g><g
         id="g6376"
         transform="matrix(0.92593,0.534584,0.577353,-1,0,841.88977)"><path
           d="m -254.949,620.38 c 0,-39.925 34.955,-72.29 78.074,-72.29 43.117,-10e-4 78.07,32.364 78.07,72.29"
           style="fill:none;stroke:#000000;stroke-width:0.75030798;stroke-linecap:butt;stroke-linejoin:miter;stroke-miterlimit:4;stroke-opacity:1;stroke-dasharray:none"
           id="path6378"
           inkscape:connector-curvature="0" /></g><g
         id="g6380"
         transform="matrix(0.534584,0.925922,1,-0.577348,0,841.88977)"><path
           d="m -371.125,320.655 c -10e-4,39.923 -34.955,72.288 -78.075,72.289 -43.117,-0.002 -78.071,-32.366 -78.07,-72.289"
           style="fill:none;stroke:#000000;stroke-width:0.75031197;stroke-linecap:butt;stroke-linejoin:miter;stroke-miterlimit:4;stroke-opacity:1;stroke-dasharray:none"
           id="path6382"
           inkscape:connector-curvature="0" /></g><g
         id="g6384"
         transform="matrix(0.534584,0.925922,1,-0.577348,0,841.88977)"><path
           d="m -527.271,465.05 c -0.001,-39.921 34.956,-72.288 78.072,-72.287 43.12,0 78.075,32.364 78.073,72.287"
           style="fill:none;stroke:#000000;stroke-width:0.75031197;stroke-linecap:butt;stroke-linejoin:miter;stroke-miterlimit:4;stroke-opacity:1;stroke-dasharray:none"
           id="path6386"
           inkscape:connector-curvature="0" /></g><g
         id="g6388"
         transform="matrix(0,0.925922,1,0,0,841.88977)"><path
           d="m -604.005,69.352 c 0,46.101 -40.366,83.472 -90.151,83.472 -49.79,0 -90.151,-37.371 -90.151,-83.472"
           style="fill:none;stroke:#000000;stroke-width:0.866386;stroke-linecap:butt;stroke-linejoin:miter;stroke-miterlimit:4;stroke-opacity:1;stroke-dasharray:none"
           id="path6390"
           inkscape:connector-curvature="0" /></g><g
         id="g6392"
         transform="matrix(0,0.925922,1,0,0,841.88977)"><path
           d="m -784.307,236.086 c 0,-46.102 40.361,-83.473 90.151,-83.473 49.785,0 90.151,37.371 90.151,83.473"
           style="fill:none;stroke:#000000;stroke-width:0.866386;stroke-linecap:butt;stroke-linejoin:miter;stroke-miterlimit:4;stroke-opacity:1;stroke-dasharray:none"
           id="path6394"
           inkscape:connector-curvature="0" /></g><g
         id="g6396"
         transform="matrix(-0.534584,0.925922,1,0.577348,0,841.88977)"><path
           d="m -513.965,-235.972 c 0.002,39.923 -34.953,72.287 -78.073,72.287 -43.116,0.001 -78.07,-32.364 -78.072,-72.287"
           style="fill:none;stroke:#000000;stroke-width:0.75031197;stroke-linecap:butt;stroke-linejoin:miter;stroke-miterlimit:4;stroke-opacity:1;stroke-dasharray:none"
           id="path6398"
           inkscape:connector-curvature="0" /></g><g
         id="g6400"
         transform="matrix(-0.57735,0.999995,1,0.577348,0,841.88977)"><path
           d="m -620.826,-91.375 c -10e-4,-39.923 32.364,-72.288 72.29,-72.287 39.923,-0.002 72.291,32.366 72.289,72.287"
           style="fill:none;stroke:#000000;stroke-width:0.72198802;stroke-linecap:butt;stroke-linejoin:miter;stroke-miterlimit:4;stroke-opacity:1;stroke-dasharray:none"
           id="path6402"
           inkscape:connector-curvature="0" /></g><g
         id="g6404"
         transform="matrix(-0.92593,0.534584,0.577353,1,0,841.88977)"><path
           d="m -346.208,-488.122 c 0,39.926 -34.954,72.291 -78.07,72.289 -43.119,0.001 -78.074,-32.364 -78.074,-72.29"
           style="fill:none;stroke:#000000;stroke-width:0.75030798;stroke-linecap:butt;stroke-linejoin:miter;stroke-miterlimit:4;stroke-opacity:1;stroke-dasharray:none"
           id="path6406"
           inkscape:connector-curvature="0" /></g><g
         id="g6408"
         transform="matrix(-0.92593,0.534584,0.577353,1,0,841.88977)"><path
           d="m -502.351,-343.725 c 0,-39.925 34.955,-72.288 78.07,-72.289 43.119,0 78.074,32.364 78.074,72.29"
           style="fill:none;stroke:#000000;stroke-width:0.75030798;stroke-linecap:butt;stroke-linejoin:miter;stroke-miterlimit:4;stroke-opacity:1;stroke-dasharray:none"
           id="path6410"
           inkscape:connector-curvature="0" /></g><g
         id="g6412"
         transform="matrix(0.893134,0,0,-1,0,841.88977)"><path
           d="m 216.753,642.734 c 0,22.575 -20.486,40.875 -45.761,40.875 -25.275,0 -45.761,-18.3 -45.761,-40.875 0,-22.57 20.486,-40.871 45.761,-40.871 25.275,0 45.761,18.301 45.761,40.871 z"
           style="fill:none;stroke:#000000;stroke-width:0.88214499;stroke-linecap:butt;stroke-linejoin:miter;stroke-miterlimit:4;stroke-opacity:1;stroke-dasharray:none"
           id="path6414"
           inkscape:connector-curvature="0" /></g><g
         id="g6416"
         transform="matrix(0.893134,0,0,-1,0,841.88977)"><path
           d="m 266.679,642.734 c 0,47.2 -42.84,85.461 -95.687,85.461 -52.847,0 -95.687,-38.261 -95.687,-85.461 0,-47.195 42.84,-85.457 95.687,-85.457 52.847,0 95.687,38.262 95.687,85.457 z"
           style="fill:none;stroke:#000000;stroke-width:0.88214499;stroke-linecap:butt;stroke-linejoin:miter;stroke-miterlimit:4;stroke-opacity:1;stroke-dasharray:none"
           id="path6418"
           inkscape:connector-curvature="0" /></g><g
         id="g6420"
         transform="matrix(0.893134,0,0,-1,0,841.88977)"><path
           d="m 194.041,642.734 c 0,11.371 -10.317,20.586 -23.049,20.586 -12.732,0 -23.049,-9.215 -23.049,-20.586 0,-11.367 10.317,-20.586 23.049,-20.586 12.732,0 23.049,9.219 23.049,20.586 z"
           style="fill:#ffffff;fill-opacity:1;fill-rule:nonzero;stroke:#000000;stroke-width:0.88214499;stroke-linecap:butt;stroke-linejoin:miter;stroke-miterlimit:4;stroke-opacity:1;stroke-dasharray:none"
           id="path6422"
           inkscape:connector-curvature="0" /></g><g
         id="g6424"
         transform="matrix(0.893134,0,0,-1,0,841.88977)"><path
           d="m 183.159,642.734 c 0,6.004 -5.445,10.868 -12.167,10.868 -6.722,0 -12.167,-4.864 -12.167,-10.868 0,-6 5.445,-10.867 12.167,-10.867 6.722,0 12.167,4.867 12.167,10.867 z"
           style="fill:#ffffff;fill-opacity:1;fill-rule:nonzero;stroke:#000000;stroke-width:0.46570301;stroke-linecap:butt;stroke-linejoin:miter;stroke-miterlimit:4;stroke-opacity:1;stroke-dasharray:none"
           id="path6426"
           inkscape:connector-curvature="0" /></g></g><g
       id="g7276"><g
         id="g6428"
         transform="matrix(1,0,0,-1,0,841.88977)"><path
           d="m 560.703,202.734 c 0,65.383 -53.004,118.383 -118.383,118.383 -65.382,0 -118.386,-53 -118.386,-118.383 0,-65.379 53.004,-118.382 118.386,-118.382 65.379,0 118.383,53.003 118.383,118.382 z"
           style="fill:none;stroke:#000000;stroke-width:0.83367801;stroke-linecap:butt;stroke-linejoin:miter;stroke-miterlimit:4;stroke-opacity:1;stroke-dasharray:none"
           id="path6430"
           inkscape:connector-curvature="0" /></g><g
         id="g6432"
         transform="matrix(1,0,0,-1,0,841.88977)"><path
           d="m 560.703,202.734 c 0,65.383 -53.004,118.383 -118.383,118.383 -65.382,0 -118.386,-53 -118.386,-118.383 0,-65.379 53.004,-118.382 118.386,-118.382 65.379,0 118.383,53.003 118.383,118.382 z"
           style="fill:none;stroke:#000000;stroke-width:0.83367801;stroke-linecap:butt;stroke-linejoin:miter;stroke-miterlimit:4;stroke-opacity:1;stroke-dasharray:none"
           id="path6434"
           inkscape:connector-curvature="0" /></g><g
         id="g6436"
         transform="matrix(0.92593,0,0,-1,0,841.88977)"><path
           d="m 567.854,119.367 c 0,46.102 -40.365,83.473 -90.15,83.473 -49.79,0 -90.15,-37.371 -90.15,-83.473"
           style="fill:none;stroke:#000000;stroke-width:0.866382;stroke-linecap:butt;stroke-linejoin:miter;stroke-miterlimit:4;stroke-opacity:1;stroke-dasharray:none"
           id="path6438"
           inkscape:connector-curvature="0" /></g><g
         id="g6440"
         transform="matrix(0.92593,0,0,-1,0,841.88977)"><path
           d="m 387.554,286.102 c 0,-46.098 40.36,-83.473 90.15,-83.473 49.785,0 90.15,37.375 90.15,83.473"
           style="fill:none;stroke:#000000;stroke-width:0.866382;stroke-linecap:butt;stroke-linejoin:miter;stroke-miterlimit:4;stroke-opacity:1;stroke-dasharray:none"
           id="path6442"
           inkscape:connector-curvature="0" /></g><g
         id="g6444"
         transform="matrix(0.92593,0.534584,0.577353,-1,0,841.88977)"><path
           d="m 341.54,271.383 c -0.003,39.923 -34.955,72.29 -78.074,72.29 -43.118,-0.004 -78.073,-32.366 -78.073,-72.292"
           style="fill:none;stroke:#000000;stroke-width:0.75030798;stroke-linecap:butt;stroke-linejoin:miter;stroke-miterlimit:4;stroke-opacity:1;stroke-dasharray:none"
           id="path6446"
           inkscape:connector-curvature="0" /></g><g
         id="g6448"
         transform="matrix(0.92593,0.534584,0.577353,-1,0,841.88977)"><path
           d="m 185.395,415.781 c 0,-39.926 34.955,-72.29 78.071,-72.292 43.12,0 78.073,32.366 78.073,72.291"
           style="fill:none;stroke:#000000;stroke-width:0.75030798;stroke-linecap:butt;stroke-linejoin:miter;stroke-miterlimit:4;stroke-opacity:1;stroke-dasharray:none"
           id="path6450"
           inkscape:connector-curvature="0" /></g><g
         id="g6452"
         transform="matrix(0.534584,0.925922,1,-0.577348,0,841.88977)"><path
           d="m 120.708,347.327 c 0.001,39.925 -34.953,72.291 -78.073,72.291 -43.117,-10e-4 -78.071,-32.366 -78.072,-72.291"
           style="fill:none;stroke:#000000;stroke-width:0.75031197;stroke-linecap:butt;stroke-linejoin:miter;stroke-miterlimit:4;stroke-opacity:1;stroke-dasharray:none"
           id="path6454"
           inkscape:connector-curvature="0" /></g><g
         id="g6456"
         transform="matrix(0.534584,0.925922,1,-0.577348,0,841.88977)"><path
           d="m -35.436,491.725 c -0.003,-39.924 34.954,-72.291 78.07,-72.29 43.12,0 78.075,32.364 78.075,72.29"
           style="fill:none;stroke:#000000;stroke-width:0.75031197;stroke-linecap:butt;stroke-linejoin:miter;stroke-miterlimit:4;stroke-opacity:1;stroke-dasharray:none"
           id="path6458"
           inkscape:connector-curvature="0" /></g><g
         id="g6460"
         transform="matrix(0,0.925922,1,0,0,841.88977)"><path
           d="m -128.803,358.949 c 0,46.102 -40.365,83.473 -90.151,83.473 -49.79,0 -90.151,-37.371 -90.151,-83.473"
           style="fill:none;stroke:#000000;stroke-width:0.866386;stroke-linecap:butt;stroke-linejoin:miter;stroke-miterlimit:4;stroke-opacity:1;stroke-dasharray:none"
           id="path6462"
           inkscape:connector-curvature="0" /></g><g
         id="g6464"
         transform="matrix(0,0.925922,1,0,0,841.88977)"><path
           d="m -309.105,525.688 c 0,-46.102 40.361,-83.473 90.151,-83.473 49.786,0 90.151,37.371 90.151,83.473"
           style="fill:none;stroke:#000000;stroke-width:0.866386;stroke-linecap:butt;stroke-linejoin:miter;stroke-miterlimit:4;stroke-opacity:1;stroke-dasharray:none"
           id="path6466"
           inkscape:connector-curvature="0" /></g><g
         id="g6468"
         transform="matrix(-0.534584,0.925922,1,0.577348,0,841.88977)"><path
           d="m -292.995,171.753 c 0,39.925 -34.954,72.29 -78.074,72.29 -43.117,0.001 -78.071,-32.365 -78.071,-72.29"
           style="fill:none;stroke:#000000;stroke-width:0.75031197;stroke-linecap:butt;stroke-linejoin:miter;stroke-miterlimit:4;stroke-opacity:1;stroke-dasharray:none"
           id="path6470"
           inkscape:connector-curvature="0" /></g><g
         id="g6472"
         transform="matrix(-0.57735,0.999995,1,0.577348,0,841.88977)"><path
           d="m -416.225,316.352 c 0,-39.925 32.365,-72.29 72.291,-72.29 39.923,-0.001 72.291,32.366 72.287,72.29"
           style="fill:none;stroke:#000000;stroke-width:0.72198802;stroke-linecap:butt;stroke-linejoin:miter;stroke-miterlimit:4;stroke-opacity:1;stroke-dasharray:none"
           id="path6474"
           inkscape:connector-curvature="0" /></g><g
         id="g6476"
         transform="matrix(-0.92593,0.534584,0.577353,1,0,841.88977)"><path
           d="m -375.014,-32.723 c 0.001,39.926 -34.953,72.291 -78.072,72.291 -43.12,0 -78.071,-32.366 -78.075,-72.29"
           style="fill:none;stroke:#000000;stroke-width:0.75030798;stroke-linecap:butt;stroke-linejoin:miter;stroke-miterlimit:4;stroke-opacity:1;stroke-dasharray:none"
           id="path6478"
           inkscape:connector-curvature="0" /></g><g
         id="g6480"
         transform="matrix(-0.92593,0.534584,0.577353,1,0,841.88977)"><path
           d="m -531.16,111.676 c 0,-39.926 34.955,-72.288 78.073,-72.291 43.117,0.001 78.071,32.366 78.071,72.291"
           style="fill:none;stroke:#000000;stroke-width:0.75030798;stroke-linecap:butt;stroke-linejoin:miter;stroke-miterlimit:4;stroke-opacity:1;stroke-dasharray:none"
           id="path6482"
           inkscape:connector-curvature="0" /></g><g
         id="g6484"
         transform="matrix(0.893134,0,0,-1,0,841.88977)"><path
           d="m 541.007,202.734 c 0,22.575 -20.491,40.875 -45.762,40.875 -25.275,0 -45.766,-18.3 -45.766,-40.875 0,-22.57 20.491,-40.871 45.766,-40.871 25.271,0 45.762,18.301 45.762,40.871 z"
           style="fill:none;stroke:#000000;stroke-width:0.88214499;stroke-linecap:butt;stroke-linejoin:miter;stroke-miterlimit:4;stroke-opacity:1;stroke-dasharray:none"
           id="path6486"
           inkscape:connector-curvature="0" /></g><g
         id="g6488"
         transform="matrix(0.893134,0,0,-1,0,841.88977)"><path
           d="m 590.927,202.734 c 0,47.2 -42.839,85.461 -95.682,85.461 -52.847,0 -95.686,-38.261 -95.686,-85.461 0,-47.195 42.839,-85.457 95.686,-85.457 52.843,0 95.682,38.262 95.682,85.457 z"
           style="fill:none;stroke:#000000;stroke-width:0.88214499;stroke-linecap:butt;stroke-linejoin:miter;stroke-miterlimit:4;stroke-opacity:1;stroke-dasharray:none"
           id="path6490"
           inkscape:connector-curvature="0" /></g><g
         id="g6492"
         transform="matrix(0.893134,0,0,-1,0,841.88977)"><path
           d="m 518.294,202.734 c 0,11.371 -10.321,20.586 -23.049,20.586 -12.731,0 -23.049,-9.215 -23.049,-20.586 0,-11.367 10.318,-20.586 23.049,-20.586 12.728,0 23.049,9.219 23.049,20.586 z"
           style="fill:#ffffff;fill-opacity:1;fill-rule:nonzero;stroke:#000000;stroke-width:0.88214499;stroke-linecap:butt;stroke-linejoin:miter;stroke-miterlimit:4;stroke-opacity:1;stroke-dasharray:none"
           id="path6494"
           inkscape:connector-curvature="0" /></g><g
         id="g6496"
         transform="matrix(0.893134,0,0,-1,0,841.88977)"><path
           d="m 507.413,202.734 c 0,6.004 -5.45,10.868 -12.168,10.868 -6.722,0 -12.172,-4.864 -12.172,-10.868 0,-6 5.45,-10.867 12.172,-10.867 6.718,0 12.168,4.867 12.168,10.867 z"
           style="fill:#ffffff;fill-opacity:1;fill-rule:nonzero;stroke:#000000;stroke-width:0.46570301;stroke-linecap:butt;stroke-linejoin:miter;stroke-miterlimit:4;stroke-opacity:1;stroke-dasharray:none"
           id="path6498"
           inkscape:connector-curvature="0" /></g></g><g
       id="g7238"><g
         id="g6500"
         transform="matrix(1,0,0,-1,0,841.88977)"><path
           d="m 271.102,202.734 c 0,65.383 -53,118.383 -118.383,118.383 -65.383,0 -118.383,-53 -118.383,-118.383 0,-65.379 53,-118.382 118.383,-118.382 65.383,0 118.383,53.003 118.383,118.382 z"
           style="fill:none;stroke:#000000;stroke-width:0.83367801;stroke-linecap:butt;stroke-linejoin:miter;stroke-miterlimit:4;stroke-opacity:1;stroke-dasharray:none"
           id="path6502"
           inkscape:connector-curvature="0" /></g><g
         id="g6504"
         transform="matrix(1,0,0,-1,0,841.88977)"><path
           d="m 271.102,202.734 c 0,65.383 -53,118.383 -118.383,118.383 -65.383,0 -118.383,-53 -118.383,-118.383 0,-65.379 53,-118.382 118.383,-118.382 65.383,0 118.383,53.003 118.383,118.382 z"
           style="fill:none;stroke:#000000;stroke-width:0.83367801;stroke-linecap:butt;stroke-linejoin:miter;stroke-miterlimit:4;stroke-opacity:1;stroke-dasharray:none"
           id="path6506"
           inkscape:connector-curvature="0" /></g><g
         id="g6508"
         transform="matrix(0.92593,0,0,-1,0,841.88977)"><path
           d="m 255.086,119.367 c 0,46.102 -40.361,83.473 -90.151,83.473 -49.789,0 -90.15,-37.371 -90.15,-83.473"
           style="fill:none;stroke:#000000;stroke-width:0.866382;stroke-linecap:butt;stroke-linejoin:miter;stroke-miterlimit:4;stroke-opacity:1;stroke-dasharray:none"
           id="path6510"
           inkscape:connector-curvature="0" /></g><g
         id="g6512"
         transform="matrix(0.92593,0,0,-1,0,841.88977)"><path
           d="m 74.785,286.102 c 0,-46.098 40.361,-83.473 90.15,-83.473 49.79,0 90.151,37.375 90.151,83.473"
           style="fill:none;stroke:#000000;stroke-width:0.866382;stroke-linecap:butt;stroke-linejoin:miter;stroke-miterlimit:4;stroke-opacity:1;stroke-dasharray:none"
           id="path6514"
           inkscape:connector-curvature="0" /></g><g
         id="g6516"
         transform="matrix(0.92593,0.534584,0.577353,-1,0,841.88977)"><path
           d="m 106.964,145.982 c 0,39.926 -34.955,72.29 -78.075,72.29 -43.114,-0.002 -78.07,-32.364 -78.069,-72.289"
           style="fill:none;stroke:#000000;stroke-width:0.75030798;stroke-linecap:butt;stroke-linejoin:miter;stroke-miterlimit:4;stroke-opacity:1;stroke-dasharray:none"
           id="path6518"
           inkscape:connector-curvature="0" /></g><g
         id="g6520"
         transform="matrix(0.92593,0.534584,0.577353,-1,0,841.88977)"><path
           d="m -49.181,290.38 c 0,-39.925 34.954,-72.29 78.074,-72.29 43.116,-0.001 78.07,32.364 78.07,72.29"
           style="fill:none;stroke:#000000;stroke-width:0.75030798;stroke-linecap:butt;stroke-linejoin:miter;stroke-miterlimit:4;stroke-opacity:1;stroke-dasharray:none"
           id="path6522"
           inkscape:connector-curvature="0" /></g><g
         id="g6524"
         transform="matrix(0.534584,0.925922,1,-0.577348,0,841.88977)"><path
           d="m -14.723,130.128 c -0.002,39.923 -34.956,72.289 -78.075,72.289 -43.117,-0.001 -78.072,-32.366 -78.07,-72.289"
           style="fill:none;stroke:#000000;stroke-width:0.75031197;stroke-linecap:butt;stroke-linejoin:miter;stroke-miterlimit:4;stroke-opacity:1;stroke-dasharray:none"
           id="path6526"
           inkscape:connector-curvature="0" /></g><g
         id="g6528"
         transform="matrix(0.534584,0.925922,1,-0.577348,0,841.88977)"><path
           d="m -170.869,274.524 c -0.002,-39.921 34.955,-72.289 78.072,-72.287 43.12,-0.001 78.075,32.364 78.073,72.287"
           style="fill:none;stroke:#000000;stroke-width:0.75031197;stroke-linecap:butt;stroke-linejoin:miter;stroke-miterlimit:4;stroke-opacity:1;stroke-dasharray:none"
           id="path6530"
           inkscape:connector-curvature="0" /></g><g
         id="g6532"
         transform="matrix(0,0.925922,1,0,0,841.88977)"><path
           d="m -128.803,69.352 c 0,46.101 -40.365,83.472 -90.151,83.472 -49.79,0 -90.151,-37.371 -90.151,-83.472"
           style="fill:none;stroke:#000000;stroke-width:0.866386;stroke-linecap:butt;stroke-linejoin:miter;stroke-miterlimit:4;stroke-opacity:1;stroke-dasharray:none"
           id="path6534"
           inkscape:connector-curvature="0" /></g><g
         id="g6536"
         transform="matrix(0,0.925922,1,0,0,841.88977)"><path
           d="m -309.105,236.086 c 0,-46.102 40.361,-83.473 90.151,-83.473 49.786,0 90.151,37.371 90.151,83.473"
           style="fill:none;stroke:#000000;stroke-width:0.866386;stroke-linecap:butt;stroke-linejoin:miter;stroke-miterlimit:4;stroke-opacity:1;stroke-dasharray:none"
           id="path6538"
           inkscape:connector-curvature="0" /></g><g
         id="g6540"
         transform="matrix(-0.534584,0.925922,1,0.577348,0,841.88977)"><path
           d="m -157.563,-45.445 c 0.002,39.922 -34.953,72.287 -78.073,72.286 -43.117,0.002 -78.071,-32.364 -78.072,-72.286"
           style="fill:none;stroke:#000000;stroke-width:0.75031197;stroke-linecap:butt;stroke-linejoin:miter;stroke-miterlimit:4;stroke-opacity:1;stroke-dasharray:none"
           id="path6542"
           inkscape:connector-curvature="0" /></g><g
         id="g6544"
         transform="matrix(-0.57735,0.999995,1,0.577348,0,841.88977)"><path
           d="m -290.824,99.151 c -0.002,-39.923 32.364,-72.287 72.29,-72.287 39.922,-0.001 72.29,32.366 72.289,72.287"
           style="fill:none;stroke:#000000;stroke-width:0.72198802;stroke-linecap:butt;stroke-linejoin:miter;stroke-miterlimit:4;stroke-opacity:1;stroke-dasharray:none"
           id="path6546"
           inkscape:connector-curvature="0" /></g><g
         id="g6548"
         transform="matrix(-0.92593,0.534584,0.577353,1,0,841.88977)"><path
           d="m -140.441,-158.122 c 0.001,39.926 -34.953,72.291 -78.069,72.289 -43.12,0.001 -78.074,-32.364 -78.075,-72.29"
           style="fill:none;stroke:#000000;stroke-width:0.75030798;stroke-linecap:butt;stroke-linejoin:miter;stroke-miterlimit:4;stroke-opacity:1;stroke-dasharray:none"
           id="path6550"
           inkscape:connector-curvature="0" /></g><g
         id="g6552"
         transform="matrix(-0.92593,0.534584,0.577353,1,0,841.88977)"><path
           d="m -296.583,-13.725 c -10e-4,-39.925 34.955,-72.288 78.069,-72.289 43.12,0 78.074,32.364 78.075,72.29"
           style="fill:none;stroke:#000000;stroke-width:0.75030798;stroke-linecap:butt;stroke-linejoin:miter;stroke-miterlimit:4;stroke-opacity:1;stroke-dasharray:none"
           id="path6554"
           inkscape:connector-curvature="0" /></g><g
         id="g6556"
         transform="matrix(0.893134,0,0,-1,0,841.88977)"><path
           d="m 216.753,202.734 c 0,22.575 -20.486,40.875 -45.761,40.875 -25.275,0 -45.761,-18.3 -45.761,-40.875 0,-22.57 20.486,-40.871 45.761,-40.871 25.275,0 45.761,18.301 45.761,40.871 z"
           style="fill:none;stroke:#000000;stroke-width:0.88214499;stroke-linecap:butt;stroke-linejoin:miter;stroke-miterlimit:4;stroke-opacity:1;stroke-dasharray:none"
           id="path6558"
           inkscape:connector-curvature="0" /></g><g
         id="g6560"
         transform="matrix(0.893134,0,0,-1,0,841.88977)"><path
           d="m 266.679,202.734 c 0,47.2 -42.84,85.461 -95.687,85.461 -52.847,0 -95.687,-38.261 -95.687,-85.461 0,-47.195 42.84,-85.457 95.687,-85.457 52.847,0 95.687,38.262 95.687,85.457 z"
           style="fill:none;stroke:#000000;stroke-width:0.88214499;stroke-linecap:butt;stroke-linejoin:miter;stroke-miterlimit:4;stroke-opacity:1;stroke-dasharray:none"
           id="path6562"
           inkscape:connector-curvature="0" /></g><g
         id="g6564"
         transform="matrix(0.893134,0,0,-1,0,841.88977)"><path
           d="m 194.041,202.734 c 0,11.371 -10.317,20.586 -23.049,20.586 -12.732,0 -23.049,-9.215 -23.049,-20.586 0,-11.367 10.317,-20.586 23.049,-20.586 12.732,0 23.049,9.219 23.049,20.586 z"
           style="fill:#ffffff;fill-opacity:1;fill-rule:nonzero;stroke:#000000;stroke-width:0.88214499;stroke-linecap:butt;stroke-linejoin:miter;stroke-miterlimit:4;stroke-opacity:1;stroke-dasharray:none"
           id="path6566"
           inkscape:connector-curvature="0" /></g><g
         id="g6568"
         transform="matrix(0.893134,0,0,-1,0,841.88977)"><path
           d="m 183.159,202.734 c 0,6.004 -5.445,10.868 -12.167,10.868 -6.722,0 -12.167,-4.864 -12.167,-10.868 0,-6 5.445,-10.867 12.167,-10.867 6.722,0 12.167,4.867 12.167,10.867 z"
           style="fill:#ffffff;fill-opacity:1;fill-rule:nonzero;stroke:#000000;stroke-width:0.46570301;stroke-linecap:butt;stroke-linejoin:miter;stroke-miterlimit:4;stroke-opacity:1;stroke-dasharray:none"
           id="path6570"
           inkscape:connector-curvature="0" /></g></g><text
       id="text6572"
       transform="scale(1,-1)"
       x="15.224084"
       y="-5.6262941"><tspan
         id="tspan6574"
         sodipodi:role="line"
         y="-5.6262941"
         x="15.224084 22.324884 29.179285 35.003284 41.118484 48.006481 52.396881 55.947285 66.856087 73.710487 80.833679 87.934486 94.788879 97.891281 104.74568 108.77768 115.90089 122.99049"
         style="font-size:11.19999981px;font-variant:normal;font-weight:normal;writing-mode:lr-tb;fill:#000000;fill-opacity:1;fill-rule:nonzero;stroke:none;font-family:Bitstream Vera Sans;-inkscape-font-specification:BitstreamVeraSans-Roman">basket mandala-4up</tspan></text>
<path
       sodipodi:type="arc"
       style="fill:#000000;fill-opacity:1;stroke:#000000;stroke-width:1.5;stroke-miterlimit:4;stroke-opacity:1;stroke-dasharray:none;stroke-dashoffset:0"
       id="path6576"
       sodipodi:cx="-300.73654"
       sodipodi:cy="333.42694"
       sodipodi:rx="25.82502"
       sodipodi:ry="22.49276"
       d="m -274.91152,333.42694 a 25.82502,22.49276 0 1 1 -51.65004,0 25.82502,22.49276 0 1 1 51.65004,0 z"
       transform="matrix(0.08381963,0,0,-0.09622524,177.92663,671.23936)" /><path
       transform="matrix(0.08381963,0,0,-0.09622524,467.52613,671.23936)"
       d="m -274.91152,333.42694 a 25.82502,22.49276 0 1 1 -51.65004,0 25.82502,22.49276 0 1 1 51.65004,0 z"
       sodipodi:ry="22.49276"
       sodipodi:rx="25.82502"
       sodipodi:cy="333.42694"
       sodipodi:cx="-300.73654"
       id="path7086"
       style="fill:#000000;fill-opacity:1;stroke:#000000;stroke-width:1.5;stroke-miterlimit:4;stroke-opacity:1;stroke-dasharray:none;stroke-dashoffset:0"
       sodipodi:type="arc" /><path
       sodipodi:type="arc"
       style="fill:#000000;fill-opacity:1;stroke:#000000;stroke-width:1.5;stroke-miterlimit:4;stroke-opacity:1;stroke-dasharray:none;stroke-dashoffset:0"
       id="path7088"
       sodipodi:cx="-300.73654"
       sodipodi:cy="333.42694"
       sodipodi:rx="25.82502"
       sodipodi:ry="22.49276"
       d="m -274.91152,333.42694 a 25.82502,22.49276 0 1 1 -51.65004,0 25.82502,22.49276 0 1 1 51.65004,0 z"
       transform="matrix(0.08381963,0,0,-0.09622524,467.52613,231.23936)" /><path
       transform="matrix(0.08381963,0,0,-0.09622524,177.92663,231.23936)"
       d="m -274.91152,333.42694 a 25.82502,22.49276 0 1 1 -51.65004,0 25.82502,22.49276 0 1 1 51.65004,0 z"
       sodipodi:ry="22.49276"
       sodipodi:rx="25.82502"
       sodipodi:cy="333.42694"
       sodipodi:cx="-300.73654"
       id="path7090"
       style="fill:#000000;fill-opacity:1;stroke:#000000;stroke-width:1.5;stroke-miterlimit:4;stroke-opacity:1;stroke-dasharray:none;stroke-dashoffset:0"
       sodipodi:type="arc" /></g></svg>