<?xml version="1.0" encoding="UTF-8" standalone="no"?>
<!-- Created with Inkscape (http://www.inkscape.org/) -->

<svg
   xmlns:dc="http://purl.org/dc/elements/1.1/"
   xmlns:cc="http://creativecommons.org/ns#"
   xmlns:rdf="http://www.w3.org/1999/02/22-rdf-syntax-ns#"
   xmlns:svg="http://www.w3.org/2000/svg"
   xmlns="http://www.w3.org/2000/svg"
   xmlns:xlink="http://www.w3.org/1999/xlink"
   xmlns:sodipodi="http://sodipodi.sourceforge.net/DTD/sodipodi-0.dtd"
   xmlns:inkscape="http://www.inkscape.org/namespaces/inkscape"
   width="744.09448819"
   height="1052.3622047"
   id="svg2"
   version="1.1"
   inkscape:version="0.47 r22583"
   sodipodi:docname="basket mandala-1.svg">
  <defs
     id="defs4">
    <inkscape:perspective
       sodipodi:type="inkscape:persp3d"
       inkscape:vp_x="0 : 526.18109 : 1"
       inkscape:vp_y="0 : 1000 : 0"
       inkscape:vp_z="744.09448 : 526.18109 : 1"
       inkscape:persp3d-origin="372.04724 : 350.78739 : 1"
       id="perspective10" />
    <inkscape:perspective
       id="perspective2884"
       inkscape:persp3d-origin="0.5 : 0.33333333 : 1"
       inkscape:vp_z="1 : 0.5 : 1"
       inkscape:vp_y="0 : 1000 : 0"
       inkscape:vp_x="0 : 0.5 : 1"
       sodipodi:type="inkscape:persp3d" />
  </defs>
  <sodipodi:namedview
     id="base"
     pagecolor="#ffffff"
     bordercolor="#666666"
     borderopacity="1.0"
     inkscape:pageopacity="0.0"
     inkscape:pageshadow="2"
     inkscape:zoom="0.42285822"
     inkscape:cx="372.04724"
     inkscape:cy="526.18109"
     inkscape:document-units="px"
     inkscape:current-layer="layer1"
     showgrid="false"
     showguides="true"
     inkscape:guide-bbox="true"
     inkscape:window-width="1024"
     inkscape:window-height="695"
     inkscape:window-x="0"
     inkscape:window-y="51"
     inkscape:window-maximized="1" />
  <metadata
     id="metadata7">
    <rdf:RDF>
      <cc:Work
         rdf:about="">
        <dc:format>image/svg+xml</dc:format>
        <dc:type
           rdf:resource="http://purl.org/dc/dcmitype/StillImage" />
        <dc:title></dc:title>
      </cc:Work>
    </rdf:RDF>
  </metadata>
  <g
     inkscape:groupmode="layer"
     id="layer2"
     inkscape:label="Layer"
     style="display:none"
     sodipodi:insensitive="true">
    <image
       y="289.34384"
       x="-161.49998"
       id="image2886"
       height="904"
       width="904"
       xlink:href="file:///home/charles/Robin/Graphics/Mandalas/sunflower%20mandala.png" />
  </g>
  <g
     inkscape:label="Layer 1"
     inkscape:groupmode="layer"
     id="layer1"
     style="display:inline">
    <g
       id="g3845"
       transform="matrix(0.94736793,0,0,0.94736356,-9.8380308,-120.54023)">
      <g
         style="stroke:#ffffff;stroke-width:2.5;stroke-miterlimit:4;stroke-opacity:1;stroke-dasharray:none"
         transform="translate(-62.031926,0)"
         id="g3792">
        <path
           transform="matrix(4.601876,0,0,4.9700261,2721.6862,-1569.7121)"
           style="fill:#000000;fill-opacity:1;stroke:#ffffff;stroke-width:0.52274901;stroke-linecap:butt;stroke-linejoin:miter;stroke-miterlimit:4;stroke-opacity:1;stroke-dasharray:none"
           d="m -408.57143,429.50504 c 0,39.44891 -34.53804,71.42857 -77.14286,71.42857 -42.60483,0 -77.14286,-31.97966 -77.14286,-71.42857 0,-39.44892 34.53803,-71.42858 77.14286,-71.42858 42.60482,0 77.14286,31.97966 77.14286,71.42858 z"
           id="path3750" />
        <path
           transform="matrix(4.601876,0,0,4.9700261,2721.6862,-1569.7121)"
           style="fill:none;stroke:#ffffff;stroke-width:0.52274901;stroke-linecap:butt;stroke-linejoin:miter;stroke-miterlimit:4;stroke-opacity:1;stroke-dasharray:none"
           d="m -408.57143,429.50504 c 0,39.44891 -34.53804,71.42857 -77.14286,71.42857 -42.60483,0 -77.14286,-31.97966 -77.14286,-71.42857 0,-39.44892 34.53803,-71.42858 77.14286,-71.42858 42.60482,0 77.14286,31.97966 77.14286,71.42858 z"
           id="path3664" />
        <g
           id="g3686"
           transform="translate(-3.1316834e-6,0)"
           style="stroke:#ffffff;stroke-width:2.5;stroke-miterlimit:4;stroke-opacity:1;stroke-dasharray:none">
          <path
             transform="matrix(3.2448103,0,0,3.5043952,2062.54,-1190.2162)"
             style="fill:none;stroke:#ffffff;stroke-width:0.74137652;stroke-linecap:butt;stroke-linejoin:miter;stroke-miterlimit:4;stroke-opacity:1;stroke-dasharray:none"
             d="m -408.57143,429.50504 c 0,39.44891 -34.53804,71.42857 -77.14286,71.42857 -42.60483,0 -77.14286,-31.97966 -77.14286,-71.42857"
             id="path3670"
             sodipodi:nodetypes="css" />
          <path
             transform="matrix(3.2448103,0,0,3.5043952,2062.54,-690.2162)"
             style="fill:none;stroke:#ffffff;stroke-width:0.74137652;stroke-linecap:butt;stroke-linejoin:miter;stroke-miterlimit:4;stroke-opacity:1;stroke-dasharray:none"
             d="m -562.85715,429.50504 c 0,-39.44892 34.53803,-71.42858 77.14286,-71.42858 42.60482,0 77.14286,31.97966 77.14286,71.42858"
             id="path3682"
             sodipodi:nodetypes="csc" />
        </g>
        <g
           id="g3698"
           transform="matrix(0.8660254,-0.5,0.5,0.8660254,-217.29239,318.93213)"
           style="stroke:#ffffff;stroke-width:2.5;stroke-miterlimit:4;stroke-opacity:1;stroke-dasharray:none">
          <path
             transform="matrix(3.2448103,0,0,3.5043952,2062.54,-1190.2162)"
             style="fill:none;stroke:#ffffff;stroke-width:0.74137652;stroke-linecap:butt;stroke-linejoin:miter;stroke-miterlimit:4;stroke-opacity:1;stroke-dasharray:none"
             d="m -408.57143,429.50504 c 0,39.44891 -34.53804,71.42857 -77.14286,71.42857 -42.60483,0 -77.14286,-31.97966 -77.14286,-71.42857"
             id="path3700"
             sodipodi:nodetypes="css" />
          <path
             transform="matrix(3.2448103,0,0,3.5043952,2062.54,-690.2162)"
             style="fill:none;stroke:#ffffff;stroke-width:0.74137652;stroke-linecap:butt;stroke-linejoin:miter;stroke-miterlimit:4;stroke-opacity:1;stroke-dasharray:none"
             d="m -562.85715,429.50504 c 0,-39.44892 34.53803,-71.42858 77.14286,-71.42858 42.60482,0 77.14286,31.97966 77.14286,71.42858"
             id="path3702"
             sodipodi:nodetypes="csc" />
        </g>
        <g
           transform="matrix(0.5,-0.8660254,0.8660254,0.5,-246.00706,703.78164)"
           id="g3704"
           style="stroke:#ffffff;stroke-width:2.5;stroke-miterlimit:4;stroke-opacity:1;stroke-dasharray:none">
          <path
             transform="matrix(3.2448103,0,0,3.5043952,2062.54,-1190.2162)"
             style="fill:none;stroke:#ffffff;stroke-width:0.74137652;stroke-linecap:butt;stroke-linejoin:miter;stroke-miterlimit:4;stroke-opacity:1;stroke-dasharray:none"
             d="m -408.57143,429.50504 c 0,39.44891 -34.53804,71.42857 -77.14286,71.42857 -42.60483,0 -77.14286,-31.97966 -77.14286,-71.42857"
             id="path3706"
             sodipodi:nodetypes="css" />
          <path
             transform="matrix(3.2448103,0,0,3.5043952,2062.54,-690.2162)"
             style="fill:none;stroke:#ffffff;stroke-width:0.74137652;stroke-linecap:butt;stroke-linejoin:miter;stroke-miterlimit:4;stroke-opacity:1;stroke-dasharray:none"
             d="m -562.85715,429.50504 c 0,-39.44892 34.53803,-71.42858 77.14286,-71.42858 42.60482,0 77.14286,31.97966 77.14286,71.42858"
             id="path3708"
             sodipodi:nodetypes="csc" />
        </g>
        <g
           id="g3710"
           transform="matrix(0,-1,1,0,-78.449933,1051.4284)"
           style="stroke:#ffffff;stroke-width:2.5;stroke-miterlimit:4;stroke-opacity:1;stroke-dasharray:none">
          <path
             transform="matrix(3.2448103,0,0,3.5043952,2062.54,-1190.2162)"
             style="fill:none;stroke:#ffffff;stroke-width:0.74137652;stroke-linecap:butt;stroke-linejoin:miter;stroke-miterlimit:4;stroke-opacity:1;stroke-dasharray:none"
             d="m -408.57143,429.50504 c 0,39.44891 -34.53804,71.42857 -77.14286,71.42857 -42.60483,0 -77.14286,-31.97966 -77.14286,-71.42857"
             id="path3712"
             sodipodi:nodetypes="css" />
          <path
             transform="matrix(3.2448103,0,0,3.5043952,2062.54,-690.2162)"
             style="fill:none;stroke:#ffffff;stroke-width:0.74137652;stroke-linecap:butt;stroke-linejoin:miter;stroke-miterlimit:4;stroke-opacity:1;stroke-dasharray:none"
             d="m -562.85715,429.50504 c 0,-39.44892 34.53803,-71.42858 77.14286,-71.42858 42.60482,0 77.14286,31.97966 77.14286,71.42858"
             id="path3714"
             sodipodi:nodetypes="csc" />
        </g>
        <g
           transform="matrix(-0.5,-0.8660254,0.8660254,-0.5,240.4822,1268.7208)"
           id="g3716"
           style="stroke:#ffffff;stroke-width:2.5;stroke-miterlimit:4;stroke-opacity:1;stroke-dasharray:none">
          <path
             transform="matrix(3.2448103,0,0,3.5043952,2062.54,-1190.2162)"
             style="fill:none;stroke:#ffffff;stroke-width:0.74137652;stroke-linecap:butt;stroke-linejoin:miter;stroke-miterlimit:4;stroke-opacity:1;stroke-dasharray:none"
             d="m -408.57143,429.50504 c 0,39.44891 -34.53804,71.42857 -77.14286,71.42857 -42.60483,0 -77.14286,-31.97966 -77.14286,-71.42857"
             id="path3718"
             sodipodi:nodetypes="css" />
          <path
             sodipodi:nodetypes="css"
             id="path3788"
             d="m 234.95408,815.63904 c 0,-138.24457 112.06939,-250.31393 250.31394,-250.31394 138.24459,10e-6 250.31395,112.06937 250.31395,250.31395"
             style="fill:none;stroke:#ffffff;stroke-width:2.5;stroke-linecap:butt;stroke-linejoin:miter;stroke-miterlimit:4;stroke-opacity:1;stroke-dasharray:none" />
        </g>
        <g
           id="g3722"
           transform="matrix(-0.8660254,-0.5,0.5,-0.8660254,625.33171,1297.4355)"
           style="stroke:#ffffff;stroke-width:2.5;stroke-miterlimit:4;stroke-opacity:1;stroke-dasharray:none">
          <path
             transform="matrix(3.2448103,0,0,3.5043952,2062.54,-1190.2162)"
             style="fill:none;stroke:#ffffff;stroke-width:0.74137652;stroke-linecap:butt;stroke-linejoin:miter;stroke-miterlimit:4;stroke-opacity:1;stroke-dasharray:none"
             d="m -408.57143,429.50504 c 0,39.44891 -34.53804,71.42857 -77.14286,71.42857 -42.60483,0 -77.14286,-31.97966 -77.14286,-71.42857"
             id="path3724"
             sodipodi:nodetypes="css" />
          <path
             transform="matrix(3.2448103,0,0,3.5043952,2062.54,-690.2162)"
             style="fill:none;stroke:#ffffff;stroke-width:0.74137652;stroke-linecap:butt;stroke-linejoin:miter;stroke-miterlimit:4;stroke-opacity:1;stroke-dasharray:none"
             d="m -562.85715,429.50504 c 0,-39.44892 34.53803,-71.42858 77.14286,-71.42858 42.60482,0 77.14286,31.97966 77.14286,71.42858"
             id="path3726"
             sodipodi:nodetypes="csc" />
        </g>
      </g>
      <path
         transform="matrix(1.119021,0,0,1.2529209,178.38987,-147.04326)"
         d="m 329.42491,568.25806 c 0,54.02678 -49.03807,97.82415 -109.5296,97.82415 -60.49153,0 -109.5296,-43.79737 -109.5296,-97.82415 0,-54.02679 49.03807,-97.82415 109.5296,-97.82415 60.49153,0 109.5296,43.79736 109.5296,97.82415 z"
         sodipodi:ry="97.82415"
         sodipodi:rx="109.5296"
         sodipodi:cy="568.25806"
         sodipodi:cx="219.89531"
         id="path3790"
         style="fill:none;stroke:#ffffff;stroke-width:2.11134434;stroke-linecap:butt;stroke-linejoin:miter;stroke-miterlimit:4;stroke-opacity:1;stroke-dasharray:none"
         sodipodi:type="arc" />
      <path
         sodipodi:type="arc"
         style="fill:none;stroke:#ffffff;stroke-width:1.00977337;stroke-linecap:butt;stroke-linejoin:miter;stroke-miterlimit:4;stroke-opacity:1;stroke-dasharray:none"
         id="path3814"
         sodipodi:cx="219.89531"
         sodipodi:cy="568.25806"
         sodipodi:rx="109.5296"
         sodipodi:ry="97.82415"
         d="m 329.42491,568.25806 c 0,54.02678 -49.03807,97.82415 -109.5296,97.82415 -60.49153,0 -109.5296,-43.79737 -109.5296,-97.82415 0,-54.02679 49.03807,-97.82415 109.5296,-97.82415 60.49153,0 109.5296,43.79736 109.5296,97.82415 z"
         transform="matrix(2.3397711,0,0,2.6197437,-90.04735,-923.75133)" />
      <path
         sodipodi:type="arc"
         style="fill:none;stroke:#ffffff;stroke-width:4.19191265;stroke-linecap:butt;stroke-linejoin:miter;stroke-miterlimit:4;stroke-opacity:1;stroke-dasharray:none"
         id="path3818"
         sodipodi:cx="219.89531"
         sodipodi:cy="568.25806"
         sodipodi:rx="109.5296"
         sodipodi:ry="97.82415"
         d="m 329.42491,568.25806 c 0,54.02678 -49.03807,97.82415 -109.5296,97.82415 -60.49153,0 -109.5296,-43.79737 -109.5296,-97.82415 0,-54.02679 49.03807,-97.82415 109.5296,-97.82415 60.49153,0 109.5296,43.79736 109.5296,97.82415 z"
         transform="matrix(0.56361827,0,0,0.63105975,300.52033,206.33435)" />
    </g>
  </g>
</svg>
