<?xml version="1.0" encoding="UTF-8" standalone="no"?>
<!-- Created with Inkscape (http://www.inkscape.org/) -->

<svg
   xmlns:dc="http://purl.org/dc/elements/1.1/"
   xmlns:cc="http://creativecommons.org/ns#"
   xmlns:rdf="http://www.w3.org/1999/02/22-rdf-syntax-ns#"
   xmlns:svg="http://www.w3.org/2000/svg"
   xmlns="http://www.w3.org/2000/svg"
   xmlns:xlink="http://www.w3.org/1999/xlink"
   xmlns:sodipodi="http://sodipodi.sourceforge.net/DTD/sodipodi-0.dtd"
   xmlns:inkscape="http://www.inkscape.org/namespaces/inkscape"
   width="744.09448819"
   height="1052.3622047"
   id="svg2"
   version="1.1"
   inkscape:version="0.47 r22583"
   sodipodi:docname="basket mandala-1-4in.svg">
  <defs
     id="defs4">
    <inkscape:perspective
       sodipodi:type="inkscape:persp3d"
       inkscape:vp_x="0 : 526.18109 : 1"
       inkscape:vp_y="0 : 1000 : 0"
       inkscape:vp_z="744.09448 : 526.18109 : 1"
       inkscape:persp3d-origin="372.04724 : 350.78739 : 1"
       id="perspective10" />
    <inkscape:perspective
       id="perspective2884"
       inkscape:persp3d-origin="0.5 : 0.33333333 : 1"
       inkscape:vp_z="1 : 0.5 : 1"
       inkscape:vp_y="0 : 1000 : 0"
       inkscape:vp_x="0 : 0.5 : 1"
       sodipodi:type="inkscape:persp3d" />
  </defs>
  <sodipodi:namedview
     id="base"
     pagecolor="#ffffff"
     bordercolor="#666666"
     borderopacity="1.0"
     inkscape:pageopacity="0.0"
     inkscape:pageshadow="2"
     inkscape:zoom="0.29900591"
     inkscape:cx="312.46404"
     inkscape:cy="387.1603"
     inkscape:document-units="px"
     inkscape:current-layer="layer1"
     showgrid="false"
     showguides="true"
     inkscape:guide-bbox="true"
     inkscape:window-width="1024"
     inkscape:window-height="689"
     inkscape:window-x="0"
     inkscape:window-y="27"
     inkscape:window-maximized="1" />
  <metadata
     id="metadata7">
    <rdf:RDF>
      <cc:Work
         rdf:about="">
        <dc:format>image/svg+xml</dc:format>
        <dc:type
           rdf:resource="http://purl.org/dc/dcmitype/StillImage" />
        <dc:title />
      </cc:Work>
    </rdf:RDF>
  </metadata>
  <g
     inkscape:groupmode="layer"
     id="layer2"
     inkscape:label="Layer"
     style="display:none"
     sodipodi:insensitive="true">
    <image
       y="289.34384"
       x="-161.49998"
       id="image2886"
       height="904"
       width="904"
       xlink:href="file:///home/charles/Robin/Graphics/Mandalas/sunflower%20mandala.png" />
  </g>
  <g
     inkscape:label="Layer 1"
     inkscape:groupmode="layer"
     id="layer1"
     style="display:inline">
    <g
       id="g5933"
       transform="matrix(0.53333081,0,0,0.53333081,-15.624598,-30.252281)">
      <path
         id="path3750"
         d="m 728.59662,414.66251 c 0,185.7421 -150.57445,336.31582 -336.31739,336.31582 -185.74299,0 -336.317392,-150.57372 -336.317392,-336.31582 0,-185.74215 150.574402,-336.315871 336.317392,-336.315871 185.74294,0 336.31739,150.573721 336.31739,336.315871 z"
         style="fill:none;stroke:#000000;stroke-width:2.3684144;stroke-linecap:butt;stroke-linejoin:miter;stroke-miterlimit:4;stroke-opacity:1;stroke-dasharray:none" />
      <path
         id="path3664"
         d="m 728.59662,414.66251 c 0,185.7421 -150.57445,336.31582 -336.31739,336.31582 -185.74299,0 -336.317392,-150.57372 -336.317392,-336.31582 0,-185.74215 150.574402,-336.315871 336.317392,-336.315871 185.74294,0 336.31739,150.573721 336.31739,336.315871 z"
         style="fill:none;stroke:#000000;stroke-width:2.3684144;stroke-linecap:butt;stroke-linejoin:miter;stroke-miterlimit:4;stroke-opacity:1;stroke-dasharray:none" />
      <g
         style="fill:none;stroke:#000000;stroke-width:2.5;stroke-miterlimit:4;stroke-opacity:1;stroke-dasharray:none"
         transform="matrix(0.94736793,0,0,0.94736356,-68.605091,-120.54023)"
         id="g3686">
        <path
           sodipodi:nodetypes="css"
           id="path3670"
           d="m -408.57143,429.50504 c 0,39.44891 -34.53804,71.42857 -77.14286,71.42857 -42.60483,0 -77.14286,-31.97966 -77.14286,-71.42857"
           style="fill:none;stroke:#000000;stroke-width:0.74137652;stroke-linecap:butt;stroke-linejoin:miter;stroke-miterlimit:4;stroke-opacity:1;stroke-dasharray:none"
           transform="matrix(3.2448103,0,0,3.5043952,2062.54,-1190.2162)" />
        <path
           sodipodi:nodetypes="csc"
           id="path3682"
           d="m -562.85715,429.50504 c 0,-39.44892 34.53803,-71.42858 77.14286,-71.42858 42.60482,0 77.14286,31.97966 77.14286,71.42858"
           style="fill:none;stroke:#000000;stroke-width:0.74137652;stroke-linecap:butt;stroke-linejoin:miter;stroke-miterlimit:4;stroke-opacity:1;stroke-dasharray:none"
           transform="matrix(3.2448103,0,0,3.5043952,2062.54,-690.2162)" />
      </g>
      <g
         style="fill:none;stroke:#000000;stroke-width:2.5;stroke-miterlimit:4;stroke-opacity:1;stroke-dasharray:none"
         transform="matrix(0.82044469,-0.47368178,0.47368396,0.82044091,-274.46093,181.60445)"
         id="g3698">
        <path
           sodipodi:nodetypes="css"
           id="path3700"
           d="m -408.57143,429.50504 c 0,39.44891 -34.53804,71.42857 -77.14286,71.42857 -42.60483,0 -77.14286,-31.97966 -77.14286,-71.42857"
           style="fill:none;stroke:#000000;stroke-width:0.74137652;stroke-linecap:butt;stroke-linejoin:miter;stroke-miterlimit:4;stroke-opacity:1;stroke-dasharray:none"
           transform="matrix(3.2448103,0,0,3.5043952,2062.54,-1190.2162)" />
        <path
           sodipodi:nodetypes="csc"
           id="path3702"
           d="m -562.85715,429.50504 c 0,-39.44892 34.53803,-71.42858 77.14286,-71.42858 42.60482,0 77.14286,31.97966 77.14286,71.42858"
           style="fill:none;stroke:#000000;stroke-width:0.74137652;stroke-linecap:butt;stroke-linejoin:miter;stroke-miterlimit:4;stroke-opacity:1;stroke-dasharray:none"
           transform="matrix(3.2448103,0,0,3.5043952,2062.54,-690.2162)" />
      </g>
      <g
         style="fill:none;stroke:#000000;stroke-width:2.5;stroke-miterlimit:4;stroke-opacity:1;stroke-dasharray:none"
         id="g3704"
         transform="matrix(0.47368396,-0.82044091,0.82044469,0.47368178,-301.66429,546.19685)">
        <path
           sodipodi:nodetypes="css"
           id="path3706"
           d="m -408.57143,429.50504 c 0,39.44891 -34.53804,71.42857 -77.14286,71.42857 -42.60483,0 -77.14286,-31.97966 -77.14286,-71.42857"
           style="fill:none;stroke:#000000;stroke-width:0.74137652;stroke-linecap:butt;stroke-linejoin:miter;stroke-miterlimit:4;stroke-opacity:1;stroke-dasharray:none"
           transform="matrix(3.2448103,0,0,3.5043952,2062.54,-1190.2162)" />
        <path
           sodipodi:nodetypes="csc"
           id="path3708"
           d="m -562.85715,429.50504 c 0,-39.44892 34.53803,-71.42858 77.14286,-71.42858 42.60482,0 77.14286,31.97966 77.14286,71.42858"
           style="fill:none;stroke:#000000;stroke-width:0.74137652;stroke-linecap:butt;stroke-linejoin:miter;stroke-miterlimit:4;stroke-opacity:1;stroke-dasharray:none"
           transform="matrix(3.2448103,0,0,3.5043952,2062.54,-690.2162)" />
      </g>
      <g
         style="fill:none;stroke:#000000;stroke-width:2.5;stroke-miterlimit:4;stroke-opacity:1;stroke-dasharray:none"
         transform="matrix(0,-0.94736356,0.94736793,0,-142.92604,875.54472)"
         id="g3710">
        <path
           sodipodi:nodetypes="css"
           id="path3712"
           d="m -408.57143,429.50504 c 0,39.44891 -34.53804,71.42857 -77.14286,71.42857 -42.60483,0 -77.14286,-31.97966 -77.14286,-71.42857"
           style="fill:none;stroke:#000000;stroke-width:0.74137652;stroke-linecap:butt;stroke-linejoin:miter;stroke-miterlimit:4;stroke-opacity:1;stroke-dasharray:none"
           transform="matrix(3.2448103,0,0,3.5043952,2062.54,-1190.2162)" />
        <path
           sodipodi:nodetypes="csc"
           id="path3714"
           d="m -562.85715,429.50504 c 0,-39.44892 34.53803,-71.42858 77.14286,-71.42858 42.60482,0 77.14286,31.97966 77.14286,71.42858"
           style="fill:none;stroke:#000000;stroke-width:0.74137652;stroke-linecap:butt;stroke-linejoin:miter;stroke-miterlimit:4;stroke-opacity:1;stroke-dasharray:none"
           transform="matrix(3.2448103,0,0,3.5043952,2062.54,-690.2162)" />
      </g>
      <g
         style="fill:none;stroke:#000000;stroke-width:2.5;stroke-miterlimit:4;stroke-opacity:1;stroke-dasharray:none"
         id="g3716"
         transform="matrix(-0.47368396,-0.82044091,0.82044469,-0.47368178,159.22004,1081.3996)">
        <path
           sodipodi:nodetypes="css"
           id="path3718"
           d="m -408.57143,429.50504 c 0,39.44891 -34.53804,71.42857 -77.14286,71.42857 -42.60483,0 -77.14286,-31.97966 -77.14286,-71.42857"
           style="fill:none;stroke:#000000;stroke-width:0.74137652;stroke-linecap:butt;stroke-linejoin:miter;stroke-miterlimit:4;stroke-opacity:1;stroke-dasharray:none"
           transform="matrix(3.2448103,0,0,3.5043952,2062.54,-1190.2162)" />
        <path
           style="fill:none;stroke:#000000;stroke-width:2.5;stroke-linecap:butt;stroke-linejoin:miter;stroke-miterlimit:4;stroke-opacity:1;stroke-dasharray:none"
           d="m 234.95408,815.63904 c 0,-138.24457 112.06939,-250.31393 250.31394,-250.31394 138.24459,10e-6 250.31395,112.06937 250.31395,250.31395"
           id="path3788"
           sodipodi:nodetypes="css" />
      </g>
      <g
         style="fill:none;stroke:#000000;stroke-width:2.5;stroke-miterlimit:4;stroke-opacity:1;stroke-dasharray:none"
         transform="matrix(-0.82044469,-0.47368178,0.47368396,-0.82044091,523.81412,1108.6029)"
         id="g3722">
        <path
           sodipodi:nodetypes="css"
           id="path3724"
           d="m -408.57143,429.50504 c 0,39.44891 -34.53804,71.42857 -77.14286,71.42857 -42.60483,0 -77.14286,-31.97966 -77.14286,-71.42857"
           style="fill:none;stroke:#000000;stroke-width:0.74137652;stroke-linecap:butt;stroke-linejoin:miter;stroke-miterlimit:4;stroke-opacity:1;stroke-dasharray:none"
           transform="matrix(3.2448103,0,0,3.5043952,2062.54,-1190.2162)" />
        <path
           sodipodi:nodetypes="csc"
           id="path3726"
           d="m -562.85715,429.50504 c 0,-39.44892 34.53803,-71.42858 77.14286,-71.42858 42.60482,0 77.14286,31.97966 77.14286,71.42858"
           style="fill:none;stroke:#000000;stroke-width:0.74137652;stroke-linecap:butt;stroke-linejoin:miter;stroke-miterlimit:4;stroke-opacity:1;stroke-dasharray:none"
           transform="matrix(3.2448103,0,0,3.5043952,2062.54,-690.2162)" />
      </g>
      <path
         transform="matrix(1.0601246,0,0,1.1869716,159.16281,-259.84366)"
         d="m 329.42491,568.25806 c 0,54.02678 -49.03807,97.82415 -109.5296,97.82415 -60.49153,0 -109.5296,-43.79737 -109.5296,-97.82415 0,-54.02679 49.03807,-97.82415 109.5296,-97.82415 60.49153,0 109.5296,43.79736 109.5296,97.82415 z"
         sodipodi:ry="97.82415"
         sodipodi:rx="109.5296"
         sodipodi:cy="568.25806"
         sodipodi:cx="219.89531"
         id="path3790"
         style="fill:none;stroke:#000000;stroke-width:2.11134434;stroke-linecap:butt;stroke-linejoin:miter;stroke-miterlimit:4;stroke-opacity:1;stroke-dasharray:none"
         sodipodi:type="arc" />
      <path
         sodipodi:type="arc"
         style="fill:none;stroke:#000000;stroke-width:1.00977337;stroke-linecap:butt;stroke-linejoin:miter;stroke-miterlimit:4;stroke-opacity:1;stroke-dasharray:none"
         id="path3814"
         sodipodi:cx="219.89531"
         sodipodi:cy="568.25806"
         sodipodi:rx="109.5296"
         sodipodi:ry="97.82415"
         d="m 329.42491,568.25806 c 0,54.02678 -49.03807,97.82415 -109.5296,97.82415 -60.49153,0 -109.5296,-43.79737 -109.5296,-97.82415 0,-54.02679 49.03807,-97.82415 109.5296,-97.82415 60.49153,0 109.5296,43.79736 109.5296,97.82415 z"
         transform="matrix(2.2166241,0,0,2.4818497,-95.146002,-995.66858)" />
      <path
         sodipodi:type="arc"
         style="fill:#ffffff;fill-opacity:1;stroke:#000000;stroke-width:4.19191265;stroke-linecap:butt;stroke-linejoin:miter;stroke-miterlimit:4;stroke-opacity:1;stroke-dasharray:none"
         id="path3818"
         sodipodi:cx="219.89531"
         sodipodi:cy="568.25806"
         sodipodi:rx="109.5296"
         sodipodi:ry="97.82415"
         d="m 329.42491,568.25806 c 0,54.02678 -49.03807,97.82415 -109.5296,97.82415 -60.49153,0 -109.5296,-43.79737 -109.5296,-97.82415 0,-54.02679 49.03807,-97.82415 109.5296,-97.82415 60.49153,0 109.5296,43.79736 109.5296,97.82415 z"
         transform="matrix(0.53395387,0,0,0.59784301,274.86529,74.933414)" />
      <path
         transform="matrix(0.28188573,0,0,0.31561418,330.29389,235.31222)"
         d="m 329.42491,568.25806 c 0,54.02678 -49.03807,97.82415 -109.5296,97.82415 -60.49153,0 -109.5296,-43.79737 -109.5296,-97.82415 0,-54.02679 49.03807,-97.82415 109.5296,-97.82415 60.49153,0 109.5296,43.79736 109.5296,97.82415 z"
         sodipodi:ry="97.82415"
         sodipodi:rx="109.5296"
         sodipodi:cy="568.25806"
         sodipodi:cx="219.89531"
         id="path5931"
         style="fill:#ffffff;fill-opacity:1;stroke:#000000;stroke-width:4.19191265;stroke-linecap:butt;stroke-linejoin:miter;stroke-miterlimit:4;stroke-opacity:1;stroke-dasharray:none"
         sodipodi:type="arc" />
    </g>
    <g
       transform="matrix(0.53333081,0,0,0.53333081,320.0754,167.06823)"
       id="g5959">
      <path
         style="fill:none;stroke:#000000;stroke-width:2.3684144;stroke-linecap:butt;stroke-linejoin:miter;stroke-miterlimit:4;stroke-opacity:1;stroke-dasharray:none"
         d="m 728.59662,414.66251 c 0,185.7421 -150.57445,336.31582 -336.31739,336.31582 -185.74299,0 -336.317392,-150.57372 -336.317392,-336.31582 0,-185.74215 150.574402,-336.315871 336.317392,-336.315871 185.74294,0 336.31739,150.573721 336.31739,336.315871 z"
         id="path5961" />
      <path
         style="fill:none;stroke:#000000;stroke-width:2.3684144;stroke-linecap:butt;stroke-linejoin:miter;stroke-miterlimit:4;stroke-opacity:1;stroke-dasharray:none"
         d="m 728.59662,414.66251 c 0,185.7421 -150.57445,336.31582 -336.31739,336.31582 -185.74299,0 -336.317392,-150.57372 -336.317392,-336.31582 0,-185.74215 150.574402,-336.315871 336.317392,-336.315871 185.74294,0 336.31739,150.573721 336.31739,336.315871 z"
         id="path5963" />
      <g
         id="g5965"
         transform="matrix(0.94736793,0,0,0.94736356,-68.605091,-120.54023)"
         style="fill:none;stroke:#000000;stroke-width:2.5;stroke-miterlimit:4;stroke-opacity:1;stroke-dasharray:none">
        <path
           transform="matrix(3.2448103,0,0,3.5043952,2062.54,-1190.2162)"
           style="fill:none;stroke:#000000;stroke-width:0.74137652;stroke-linecap:butt;stroke-linejoin:miter;stroke-miterlimit:4;stroke-opacity:1;stroke-dasharray:none"
           d="m -408.57143,429.50504 c 0,39.44891 -34.53804,71.42857 -77.14286,71.42857 -42.60483,0 -77.14286,-31.97966 -77.14286,-71.42857"
           id="path5967"
           sodipodi:nodetypes="css" />
        <path
           transform="matrix(3.2448103,0,0,3.5043952,2062.54,-690.2162)"
           style="fill:none;stroke:#000000;stroke-width:0.74137652;stroke-linecap:butt;stroke-linejoin:miter;stroke-miterlimit:4;stroke-opacity:1;stroke-dasharray:none"
           d="m -562.85715,429.50504 c 0,-39.44892 34.53803,-71.42858 77.14286,-71.42858 42.60482,0 77.14286,31.97966 77.14286,71.42858"
           id="path5969"
           sodipodi:nodetypes="csc" />
      </g>
      <g
         id="g5971"
         transform="matrix(0.82044469,-0.47368178,0.47368396,0.82044091,-274.46093,181.60445)"
         style="fill:none;stroke:#000000;stroke-width:2.5;stroke-miterlimit:4;stroke-opacity:1;stroke-dasharray:none">
        <path
           transform="matrix(3.2448103,0,0,3.5043952,2062.54,-1190.2162)"
           style="fill:none;stroke:#000000;stroke-width:0.74137652;stroke-linecap:butt;stroke-linejoin:miter;stroke-miterlimit:4;stroke-opacity:1;stroke-dasharray:none"
           d="m -408.57143,429.50504 c 0,39.44891 -34.53804,71.42857 -77.14286,71.42857 -42.60483,0 -77.14286,-31.97966 -77.14286,-71.42857"
           id="path5973"
           sodipodi:nodetypes="css" />
        <path
           transform="matrix(3.2448103,0,0,3.5043952,2062.54,-690.2162)"
           style="fill:none;stroke:#000000;stroke-width:0.74137652;stroke-linecap:butt;stroke-linejoin:miter;stroke-miterlimit:4;stroke-opacity:1;stroke-dasharray:none"
           d="m -562.85715,429.50504 c 0,-39.44892 34.53803,-71.42858 77.14286,-71.42858 42.60482,0 77.14286,31.97966 77.14286,71.42858"
           id="path5975"
           sodipodi:nodetypes="csc" />
      </g>
      <g
         transform="matrix(0.47368396,-0.82044091,0.82044469,0.47368178,-301.66429,546.19685)"
         id="g5977"
         style="fill:none;stroke:#000000;stroke-width:2.5;stroke-miterlimit:4;stroke-opacity:1;stroke-dasharray:none">
        <path
           transform="matrix(3.2448103,0,0,3.5043952,2062.54,-1190.2162)"
           style="fill:none;stroke:#000000;stroke-width:0.74137652;stroke-linecap:butt;stroke-linejoin:miter;stroke-miterlimit:4;stroke-opacity:1;stroke-dasharray:none"
           d="m -408.57143,429.50504 c 0,39.44891 -34.53804,71.42857 -77.14286,71.42857 -42.60483,0 -77.14286,-31.97966 -77.14286,-71.42857"
           id="path5979"
           sodipodi:nodetypes="css" />
        <path
           transform="matrix(3.2448103,0,0,3.5043952,2062.54,-690.2162)"
           style="fill:none;stroke:#000000;stroke-width:0.74137652;stroke-linecap:butt;stroke-linejoin:miter;stroke-miterlimit:4;stroke-opacity:1;stroke-dasharray:none"
           d="m -562.85715,429.50504 c 0,-39.44892 34.53803,-71.42858 77.14286,-71.42858 42.60482,0 77.14286,31.97966 77.14286,71.42858"
           id="path5981"
           sodipodi:nodetypes="csc" />
      </g>
      <g
         id="g5983"
         transform="matrix(0,-0.94736356,0.94736793,0,-142.92604,875.54472)"
         style="fill:none;stroke:#000000;stroke-width:2.5;stroke-miterlimit:4;stroke-opacity:1;stroke-dasharray:none">
        <path
           transform="matrix(3.2448103,0,0,3.5043952,2062.54,-1190.2162)"
           style="fill:none;stroke:#000000;stroke-width:0.74137652;stroke-linecap:butt;stroke-linejoin:miter;stroke-miterlimit:4;stroke-opacity:1;stroke-dasharray:none"
           d="m -408.57143,429.50504 c 0,39.44891 -34.53804,71.42857 -77.14286,71.42857 -42.60483,0 -77.14286,-31.97966 -77.14286,-71.42857"
           id="path5985"
           sodipodi:nodetypes="css" />
        <path
           transform="matrix(3.2448103,0,0,3.5043952,2062.54,-690.2162)"
           style="fill:none;stroke:#000000;stroke-width:0.74137652;stroke-linecap:butt;stroke-linejoin:miter;stroke-miterlimit:4;stroke-opacity:1;stroke-dasharray:none"
           d="m -562.85715,429.50504 c 0,-39.44892 34.53803,-71.42858 77.14286,-71.42858 42.60482,0 77.14286,31.97966 77.14286,71.42858"
           id="path5987"
           sodipodi:nodetypes="csc" />
      </g>
      <g
         transform="matrix(-0.47368396,-0.82044091,0.82044469,-0.47368178,159.22004,1081.3996)"
         id="g5989"
         style="fill:none;stroke:#000000;stroke-width:2.5;stroke-miterlimit:4;stroke-opacity:1;stroke-dasharray:none">
        <path
           transform="matrix(3.2448103,0,0,3.5043952,2062.54,-1190.2162)"
           style="fill:none;stroke:#000000;stroke-width:0.74137652;stroke-linecap:butt;stroke-linejoin:miter;stroke-miterlimit:4;stroke-opacity:1;stroke-dasharray:none"
           d="m -408.57143,429.50504 c 0,39.44891 -34.53804,71.42857 -77.14286,71.42857 -42.60483,0 -77.14286,-31.97966 -77.14286,-71.42857"
           id="path5991"
           sodipodi:nodetypes="css" />
        <path
           sodipodi:nodetypes="css"
           id="path5993"
           d="m 234.95408,815.63904 c 0,-138.24457 112.06939,-250.31393 250.31394,-250.31394 138.24459,10e-6 250.31395,112.06937 250.31395,250.31395"
           style="fill:none;stroke:#000000;stroke-width:2.5;stroke-linecap:butt;stroke-linejoin:miter;stroke-miterlimit:4;stroke-opacity:1;stroke-dasharray:none" />
      </g>
      <g
         id="g5995"
         transform="matrix(-0.82044469,-0.47368178,0.47368396,-0.82044091,523.81412,1108.6029)"
         style="fill:none;stroke:#000000;stroke-width:2.5;stroke-miterlimit:4;stroke-opacity:1;stroke-dasharray:none">
        <path
           transform="matrix(3.2448103,0,0,3.5043952,2062.54,-1190.2162)"
           style="fill:none;stroke:#000000;stroke-width:0.74137652;stroke-linecap:butt;stroke-linejoin:miter;stroke-miterlimit:4;stroke-opacity:1;stroke-dasharray:none"
           d="m -408.57143,429.50504 c 0,39.44891 -34.53804,71.42857 -77.14286,71.42857 -42.60483,0 -77.14286,-31.97966 -77.14286,-71.42857"
           id="path5997"
           sodipodi:nodetypes="css" />
        <path
           transform="matrix(3.2448103,0,0,3.5043952,2062.54,-690.2162)"
           style="fill:none;stroke:#000000;stroke-width:0.74137652;stroke-linecap:butt;stroke-linejoin:miter;stroke-miterlimit:4;stroke-opacity:1;stroke-dasharray:none"
           d="m -562.85715,429.50504 c 0,-39.44892 34.53803,-71.42858 77.14286,-71.42858 42.60482,0 77.14286,31.97966 77.14286,71.42858"
           id="path5999"
           sodipodi:nodetypes="csc" />
      </g>
      <path
         sodipodi:type="arc"
         style="fill:none;stroke:#000000;stroke-width:2.11134434;stroke-linecap:butt;stroke-linejoin:miter;stroke-miterlimit:4;stroke-opacity:1;stroke-dasharray:none"
         id="path6001"
         sodipodi:cx="219.89531"
         sodipodi:cy="568.25806"
         sodipodi:rx="109.5296"
         sodipodi:ry="97.82415"
         d="m 329.42491,568.25806 c 0,54.02678 -49.03807,97.82415 -109.5296,97.82415 -60.49153,0 -109.5296,-43.79737 -109.5296,-97.82415 0,-54.02679 49.03807,-97.82415 109.5296,-97.82415 60.49153,0 109.5296,43.79736 109.5296,97.82415 z"
         transform="matrix(1.0601246,0,0,1.1869716,159.16281,-259.84366)" />
      <path
         transform="matrix(2.2166241,0,0,2.4818497,-95.146002,-995.66858)"
         d="m 329.42491,568.25806 c 0,54.02678 -49.03807,97.82415 -109.5296,97.82415 -60.49153,0 -109.5296,-43.79737 -109.5296,-97.82415 0,-54.02679 49.03807,-97.82415 109.5296,-97.82415 60.49153,0 109.5296,43.79736 109.5296,97.82415 z"
         sodipodi:ry="97.82415"
         sodipodi:rx="109.5296"
         sodipodi:cy="568.25806"
         sodipodi:cx="219.89531"
         id="path6003"
         style="fill:none;stroke:#000000;stroke-width:1.00977337;stroke-linecap:butt;stroke-linejoin:miter;stroke-miterlimit:4;stroke-opacity:1;stroke-dasharray:none"
         sodipodi:type="arc" />
      <path
         transform="matrix(0.53395387,0,0,0.59784301,274.86529,74.933414)"
         d="m 329.42491,568.25806 c 0,54.02678 -49.03807,97.82415 -109.5296,97.82415 -60.49153,0 -109.5296,-43.79737 -109.5296,-97.82415 0,-54.02679 49.03807,-97.82415 109.5296,-97.82415 60.49153,0 109.5296,43.79736 109.5296,97.82415 z"
         sodipodi:ry="97.82415"
         sodipodi:rx="109.5296"
         sodipodi:cy="568.25806"
         sodipodi:cx="219.89531"
         id="path6005"
         style="fill:#ffffff;fill-opacity:1;stroke:#000000;stroke-width:4.19191265;stroke-linecap:butt;stroke-linejoin:miter;stroke-miterlimit:4;stroke-opacity:1;stroke-dasharray:none"
         sodipodi:type="arc" />
      <path
         sodipodi:type="arc"
         style="fill:#ffffff;fill-opacity:1;stroke:#000000;stroke-width:4.19191265;stroke-linecap:butt;stroke-linejoin:miter;stroke-miterlimit:4;stroke-opacity:1;stroke-dasharray:none"
         id="path6007"
         sodipodi:cx="219.89531"
         sodipodi:cy="568.25806"
         sodipodi:rx="109.5296"
         sodipodi:ry="97.82415"
         d="m 329.42491,568.25806 c 0,54.02678 -49.03807,97.82415 -109.5296,97.82415 -60.49153,0 -109.5296,-43.79737 -109.5296,-97.82415 0,-54.02679 49.03807,-97.82415 109.5296,-97.82415 60.49153,0 109.5296,43.79736 109.5296,97.82415 z"
         transform="matrix(0.28188573,0,0,0.31561418,330.29389,235.31222)" />
    </g>
    <g
       transform="matrix(0.53333081,0,0,0.53333081,-15.624598,351.01108)"
       id="g6009">
      <path
         style="fill:none;stroke:#000000;stroke-width:2.3684144;stroke-linecap:butt;stroke-linejoin:miter;stroke-miterlimit:4;stroke-opacity:1;stroke-dasharray:none"
         d="m 728.59662,414.66251 c 0,185.7421 -150.57445,336.31582 -336.31739,336.31582 -185.74299,0 -336.317392,-150.57372 -336.317392,-336.31582 0,-185.74215 150.574402,-336.315871 336.317392,-336.315871 185.74294,0 336.31739,150.573721 336.31739,336.315871 z"
         id="path6011" />
      <path
         style="fill:none;stroke:#000000;stroke-width:2.3684144;stroke-linecap:butt;stroke-linejoin:miter;stroke-miterlimit:4;stroke-opacity:1;stroke-dasharray:none"
         d="m 728.59662,414.66251 c 0,185.7421 -150.57445,336.31582 -336.31739,336.31582 -185.74299,0 -336.317392,-150.57372 -336.317392,-336.31582 0,-185.74215 150.574402,-336.315871 336.317392,-336.315871 185.74294,0 336.31739,150.573721 336.31739,336.315871 z"
         id="path6013" />
      <g
         id="g6015"
         transform="matrix(0.94736793,0,0,0.94736356,-68.605091,-120.54023)"
         style="fill:none;stroke:#000000;stroke-width:2.5;stroke-miterlimit:4;stroke-opacity:1;stroke-dasharray:none">
        <path
           transform="matrix(3.2448103,0,0,3.5043952,2062.54,-1190.2162)"
           style="fill:none;stroke:#000000;stroke-width:0.74137652;stroke-linecap:butt;stroke-linejoin:miter;stroke-miterlimit:4;stroke-opacity:1;stroke-dasharray:none"
           d="m -408.57143,429.50504 c 0,39.44891 -34.53804,71.42857 -77.14286,71.42857 -42.60483,0 -77.14286,-31.97966 -77.14286,-71.42857"
           id="path6017"
           sodipodi:nodetypes="css" />
        <path
           transform="matrix(3.2448103,0,0,3.5043952,2062.54,-690.2162)"
           style="fill:none;stroke:#000000;stroke-width:0.74137652;stroke-linecap:butt;stroke-linejoin:miter;stroke-miterlimit:4;stroke-opacity:1;stroke-dasharray:none"
           d="m -562.85715,429.50504 c 0,-39.44892 34.53803,-71.42858 77.14286,-71.42858 42.60482,0 77.14286,31.97966 77.14286,71.42858"
           id="path6019"
           sodipodi:nodetypes="csc" />
      </g>
      <g
         id="g6021"
         transform="matrix(0.82044469,-0.47368178,0.47368396,0.82044091,-274.46093,181.60445)"
         style="fill:none;stroke:#000000;stroke-width:2.5;stroke-miterlimit:4;stroke-opacity:1;stroke-dasharray:none">
        <path
           transform="matrix(3.2448103,0,0,3.5043952,2062.54,-1190.2162)"
           style="fill:none;stroke:#000000;stroke-width:0.74137652;stroke-linecap:butt;stroke-linejoin:miter;stroke-miterlimit:4;stroke-opacity:1;stroke-dasharray:none"
           d="m -408.57143,429.50504 c 0,39.44891 -34.53804,71.42857 -77.14286,71.42857 -42.60483,0 -77.14286,-31.97966 -77.14286,-71.42857"
           id="path6023"
           sodipodi:nodetypes="css" />
        <path
           transform="matrix(3.2448103,0,0,3.5043952,2062.54,-690.2162)"
           style="fill:none;stroke:#000000;stroke-width:0.74137652;stroke-linecap:butt;stroke-linejoin:miter;stroke-miterlimit:4;stroke-opacity:1;stroke-dasharray:none"
           d="m -562.85715,429.50504 c 0,-39.44892 34.53803,-71.42858 77.14286,-71.42858 42.60482,0 77.14286,31.97966 77.14286,71.42858"
           id="path6025"
           sodipodi:nodetypes="csc" />
      </g>
      <g
         transform="matrix(0.47368396,-0.82044091,0.82044469,0.47368178,-301.66429,546.19685)"
         id="g6027"
         style="fill:none;stroke:#000000;stroke-width:2.5;stroke-miterlimit:4;stroke-opacity:1;stroke-dasharray:none">
        <path
           transform="matrix(3.2448103,0,0,3.5043952,2062.54,-1190.2162)"
           style="fill:none;stroke:#000000;stroke-width:0.74137652;stroke-linecap:butt;stroke-linejoin:miter;stroke-miterlimit:4;stroke-opacity:1;stroke-dasharray:none"
           d="m -408.57143,429.50504 c 0,39.44891 -34.53804,71.42857 -77.14286,71.42857 -42.60483,0 -77.14286,-31.97966 -77.14286,-71.42857"
           id="path6029"
           sodipodi:nodetypes="css" />
        <path
           transform="matrix(3.2448103,0,0,3.5043952,2062.54,-690.2162)"
           style="fill:none;stroke:#000000;stroke-width:0.74137652;stroke-linecap:butt;stroke-linejoin:miter;stroke-miterlimit:4;stroke-opacity:1;stroke-dasharray:none"
           d="m -562.85715,429.50504 c 0,-39.44892 34.53803,-71.42858 77.14286,-71.42858 42.60482,0 77.14286,31.97966 77.14286,71.42858"
           id="path6031"
           sodipodi:nodetypes="csc" />
      </g>
      <g
         id="g6033"
         transform="matrix(0,-0.94736356,0.94736793,0,-142.92604,875.54472)"
         style="fill:none;stroke:#000000;stroke-width:2.5;stroke-miterlimit:4;stroke-opacity:1;stroke-dasharray:none">
        <path
           transform="matrix(3.2448103,0,0,3.5043952,2062.54,-1190.2162)"
           style="fill:none;stroke:#000000;stroke-width:0.74137652;stroke-linecap:butt;stroke-linejoin:miter;stroke-miterlimit:4;stroke-opacity:1;stroke-dasharray:none"
           d="m -408.57143,429.50504 c 0,39.44891 -34.53804,71.42857 -77.14286,71.42857 -42.60483,0 -77.14286,-31.97966 -77.14286,-71.42857"
           id="path6035"
           sodipodi:nodetypes="css" />
        <path
           transform="matrix(3.2448103,0,0,3.5043952,2062.54,-690.2162)"
           style="fill:none;stroke:#000000;stroke-width:0.74137652;stroke-linecap:butt;stroke-linejoin:miter;stroke-miterlimit:4;stroke-opacity:1;stroke-dasharray:none"
           d="m -562.85715,429.50504 c 0,-39.44892 34.53803,-71.42858 77.14286,-71.42858 42.60482,0 77.14286,31.97966 77.14286,71.42858"
           id="path6037"
           sodipodi:nodetypes="csc" />
      </g>
      <g
         transform="matrix(-0.47368396,-0.82044091,0.82044469,-0.47368178,159.22004,1081.3996)"
         id="g6039"
         style="fill:none;stroke:#000000;stroke-width:2.5;stroke-miterlimit:4;stroke-opacity:1;stroke-dasharray:none">
        <path
           transform="matrix(3.2448103,0,0,3.5043952,2062.54,-1190.2162)"
           style="fill:none;stroke:#000000;stroke-width:0.74137652;stroke-linecap:butt;stroke-linejoin:miter;stroke-miterlimit:4;stroke-opacity:1;stroke-dasharray:none"
           d="m -408.57143,429.50504 c 0,39.44891 -34.53804,71.42857 -77.14286,71.42857 -42.60483,0 -77.14286,-31.97966 -77.14286,-71.42857"
           id="path6041"
           sodipodi:nodetypes="css" />
        <path
           sodipodi:nodetypes="css"
           id="path6043"
           d="m 234.95408,815.63904 c 0,-138.24457 112.06939,-250.31393 250.31394,-250.31394 138.24459,10e-6 250.31395,112.06937 250.31395,250.31395"
           style="fill:none;stroke:#000000;stroke-width:2.5;stroke-linecap:butt;stroke-linejoin:miter;stroke-miterlimit:4;stroke-opacity:1;stroke-dasharray:none" />
      </g>
      <g
         id="g6045"
         transform="matrix(-0.82044469,-0.47368178,0.47368396,-0.82044091,523.81412,1108.6029)"
         style="fill:none;stroke:#000000;stroke-width:2.5;stroke-miterlimit:4;stroke-opacity:1;stroke-dasharray:none">
        <path
           transform="matrix(3.2448103,0,0,3.5043952,2062.54,-1190.2162)"
           style="fill:none;stroke:#000000;stroke-width:0.74137652;stroke-linecap:butt;stroke-linejoin:miter;stroke-miterlimit:4;stroke-opacity:1;stroke-dasharray:none"
           d="m -408.57143,429.50504 c 0,39.44891 -34.53804,71.42857 -77.14286,71.42857 -42.60483,0 -77.14286,-31.97966 -77.14286,-71.42857"
           id="path6047"
           sodipodi:nodetypes="css" />
        <path
           transform="matrix(3.2448103,0,0,3.5043952,2062.54,-690.2162)"
           style="fill:none;stroke:#000000;stroke-width:0.74137652;stroke-linecap:butt;stroke-linejoin:miter;stroke-miterlimit:4;stroke-opacity:1;stroke-dasharray:none"
           d="m -562.85715,429.50504 c 0,-39.44892 34.53803,-71.42858 77.14286,-71.42858 42.60482,0 77.14286,31.97966 77.14286,71.42858"
           id="path6049"
           sodipodi:nodetypes="csc" />
      </g>
      <path
         sodipodi:type="arc"
         style="fill:none;stroke:#000000;stroke-width:2.11134434;stroke-linecap:butt;stroke-linejoin:miter;stroke-miterlimit:4;stroke-opacity:1;stroke-dasharray:none"
         id="path6051"
         sodipodi:cx="219.89531"
         sodipodi:cy="568.25806"
         sodipodi:rx="109.5296"
         sodipodi:ry="97.82415"
         d="m 329.42491,568.25806 c 0,54.02678 -49.03807,97.82415 -109.5296,97.82415 -60.49153,0 -109.5296,-43.79737 -109.5296,-97.82415 0,-54.02679 49.03807,-97.82415 109.5296,-97.82415 60.49153,0 109.5296,43.79736 109.5296,97.82415 z"
         transform="matrix(1.0601246,0,0,1.1869716,159.16281,-259.84366)" />
      <path
         transform="matrix(2.2166241,0,0,2.4818497,-95.146002,-995.66858)"
         d="m 329.42491,568.25806 c 0,54.02678 -49.03807,97.82415 -109.5296,97.82415 -60.49153,0 -109.5296,-43.79737 -109.5296,-97.82415 0,-54.02679 49.03807,-97.82415 109.5296,-97.82415 60.49153,0 109.5296,43.79736 109.5296,97.82415 z"
         sodipodi:ry="97.82415"
         sodipodi:rx="109.5296"
         sodipodi:cy="568.25806"
         sodipodi:cx="219.89531"
         id="path6053"
         style="fill:none;stroke:#000000;stroke-width:1.00977337;stroke-linecap:butt;stroke-linejoin:miter;stroke-miterlimit:4;stroke-opacity:1;stroke-dasharray:none"
         sodipodi:type="arc" />
      <path
         transform="matrix(0.53395387,0,0,0.59784301,274.86529,74.933414)"
         d="m 329.42491,568.25806 c 0,54.02678 -49.03807,97.82415 -109.5296,97.82415 -60.49153,0 -109.5296,-43.79737 -109.5296,-97.82415 0,-54.02679 49.03807,-97.82415 109.5296,-97.82415 60.49153,0 109.5296,43.79736 109.5296,97.82415 z"
         sodipodi:ry="97.82415"
         sodipodi:rx="109.5296"
         sodipodi:cy="568.25806"
         sodipodi:cx="219.89531"
         id="path6055"
         style="fill:#ffffff;fill-opacity:1;stroke:#000000;stroke-width:4.19191265;stroke-linecap:butt;stroke-linejoin:miter;stroke-miterlimit:4;stroke-opacity:1;stroke-dasharray:none"
         sodipodi:type="arc" />
      <path
         sodipodi:type="arc"
         style="fill:#ffffff;fill-opacity:1;stroke:#000000;stroke-width:4.19191265;stroke-linecap:butt;stroke-linejoin:miter;stroke-miterlimit:4;stroke-opacity:1;stroke-dasharray:none"
         id="path6057"
         sodipodi:cx="219.89531"
         sodipodi:cy="568.25806"
         sodipodi:rx="109.5296"
         sodipodi:ry="97.82415"
         d="m 329.42491,568.25806 c 0,54.02678 -49.03807,97.82415 -109.5296,97.82415 -60.49153,0 -109.5296,-43.79737 -109.5296,-97.82415 0,-54.02679 49.03807,-97.82415 109.5296,-97.82415 60.49153,0 109.5296,43.79736 109.5296,97.82415 z"
         transform="matrix(0.28188573,0,0,0.31561418,330.29389,235.31222)" />
    </g>
    <g
       id="g6059"
       transform="matrix(0.53333081,0,0,0.53333081,320.0754,548.33159)">
      <path
         id="path6061"
         d="m 728.59662,414.66251 c 0,185.7421 -150.57445,336.31582 -336.31739,336.31582 -185.74299,0 -336.317392,-150.57372 -336.317392,-336.31582 0,-185.74215 150.574402,-336.315871 336.317392,-336.315871 185.74294,0 336.31739,150.573721 336.31739,336.315871 z"
         style="fill:none;stroke:#000000;stroke-width:2.3684144;stroke-linecap:butt;stroke-linejoin:miter;stroke-miterlimit:4;stroke-opacity:1;stroke-dasharray:none" />
      <path
         id="path6063"
         d="m 728.59662,414.66251 c 0,185.7421 -150.57445,336.31582 -336.31739,336.31582 -185.74299,0 -336.317392,-150.57372 -336.317392,-336.31582 0,-185.74215 150.574402,-336.315871 336.317392,-336.315871 185.74294,0 336.31739,150.573721 336.31739,336.315871 z"
         style="fill:none;stroke:#000000;stroke-width:2.3684144;stroke-linecap:butt;stroke-linejoin:miter;stroke-miterlimit:4;stroke-opacity:1;stroke-dasharray:none" />
      <g
         style="fill:none;stroke:#000000;stroke-width:2.5;stroke-miterlimit:4;stroke-opacity:1;stroke-dasharray:none"
         transform="matrix(0.94736793,0,0,0.94736356,-68.605091,-120.54023)"
         id="g6065">
        <path
           sodipodi:nodetypes="css"
           id="path6067"
           d="m -408.57143,429.50504 c 0,39.44891 -34.53804,71.42857 -77.14286,71.42857 -42.60483,0 -77.14286,-31.97966 -77.14286,-71.42857"
           style="fill:none;stroke:#000000;stroke-width:0.74137652;stroke-linecap:butt;stroke-linejoin:miter;stroke-miterlimit:4;stroke-opacity:1;stroke-dasharray:none"
           transform="matrix(3.2448103,0,0,3.5043952,2062.54,-1190.2162)" />
        <path
           sodipodi:nodetypes="csc"
           id="path6069"
           d="m -562.85715,429.50504 c 0,-39.44892 34.53803,-71.42858 77.14286,-71.42858 42.60482,0 77.14286,31.97966 77.14286,71.42858"
           style="fill:none;stroke:#000000;stroke-width:0.74137652;stroke-linecap:butt;stroke-linejoin:miter;stroke-miterlimit:4;stroke-opacity:1;stroke-dasharray:none"
           transform="matrix(3.2448103,0,0,3.5043952,2062.54,-690.2162)" />
      </g>
      <g
         style="fill:none;stroke:#000000;stroke-width:2.5;stroke-miterlimit:4;stroke-opacity:1;stroke-dasharray:none"
         transform="matrix(0.82044469,-0.47368178,0.47368396,0.82044091,-274.46093,181.60445)"
         id="g6071">
        <path
           sodipodi:nodetypes="css"
           id="path6073"
           d="m -408.57143,429.50504 c 0,39.44891 -34.53804,71.42857 -77.14286,71.42857 -42.60483,0 -77.14286,-31.97966 -77.14286,-71.42857"
           style="fill:none;stroke:#000000;stroke-width:0.74137652;stroke-linecap:butt;stroke-linejoin:miter;stroke-miterlimit:4;stroke-opacity:1;stroke-dasharray:none"
           transform="matrix(3.2448103,0,0,3.5043952,2062.54,-1190.2162)" />
        <path
           sodipodi:nodetypes="csc"
           id="path6075"
           d="m -562.85715,429.50504 c 0,-39.44892 34.53803,-71.42858 77.14286,-71.42858 42.60482,0 77.14286,31.97966 77.14286,71.42858"
           style="fill:none;stroke:#000000;stroke-width:0.74137652;stroke-linecap:butt;stroke-linejoin:miter;stroke-miterlimit:4;stroke-opacity:1;stroke-dasharray:none"
           transform="matrix(3.2448103,0,0,3.5043952,2062.54,-690.2162)" />
      </g>
      <g
         style="fill:none;stroke:#000000;stroke-width:2.5;stroke-miterlimit:4;stroke-opacity:1;stroke-dasharray:none"
         id="g6077"
         transform="matrix(0.47368396,-0.82044091,0.82044469,0.47368178,-301.66429,546.19685)">
        <path
           sodipodi:nodetypes="css"
           id="path6079"
           d="m -408.57143,429.50504 c 0,39.44891 -34.53804,71.42857 -77.14286,71.42857 -42.60483,0 -77.14286,-31.97966 -77.14286,-71.42857"
           style="fill:none;stroke:#000000;stroke-width:0.74137652;stroke-linecap:butt;stroke-linejoin:miter;stroke-miterlimit:4;stroke-opacity:1;stroke-dasharray:none"
           transform="matrix(3.2448103,0,0,3.5043952,2062.54,-1190.2162)" />
        <path
           sodipodi:nodetypes="csc"
           id="path6081"
           d="m -562.85715,429.50504 c 0,-39.44892 34.53803,-71.42858 77.14286,-71.42858 42.60482,0 77.14286,31.97966 77.14286,71.42858"
           style="fill:none;stroke:#000000;stroke-width:0.74137652;stroke-linecap:butt;stroke-linejoin:miter;stroke-miterlimit:4;stroke-opacity:1;stroke-dasharray:none"
           transform="matrix(3.2448103,0,0,3.5043952,2062.54,-690.2162)" />
      </g>
      <g
         style="fill:none;stroke:#000000;stroke-width:2.5;stroke-miterlimit:4;stroke-opacity:1;stroke-dasharray:none"
         transform="matrix(0,-0.94736356,0.94736793,0,-142.92604,875.54472)"
         id="g6083">
        <path
           sodipodi:nodetypes="css"
           id="path6085"
           d="m -408.57143,429.50504 c 0,39.44891 -34.53804,71.42857 -77.14286,71.42857 -42.60483,0 -77.14286,-31.97966 -77.14286,-71.42857"
           style="fill:none;stroke:#000000;stroke-width:0.74137652;stroke-linecap:butt;stroke-linejoin:miter;stroke-miterlimit:4;stroke-opacity:1;stroke-dasharray:none"
           transform="matrix(3.2448103,0,0,3.5043952,2062.54,-1190.2162)" />
        <path
           sodipodi:nodetypes="csc"
           id="path6087"
           d="m -562.85715,429.50504 c 0,-39.44892 34.53803,-71.42858 77.14286,-71.42858 42.60482,0 77.14286,31.97966 77.14286,71.42858"
           style="fill:none;stroke:#000000;stroke-width:0.74137652;stroke-linecap:butt;stroke-linejoin:miter;stroke-miterlimit:4;stroke-opacity:1;stroke-dasharray:none"
           transform="matrix(3.2448103,0,0,3.5043952,2062.54,-690.2162)" />
      </g>
      <g
         style="fill:none;stroke:#000000;stroke-width:2.5;stroke-miterlimit:4;stroke-opacity:1;stroke-dasharray:none"
         id="g6089"
         transform="matrix(-0.47368396,-0.82044091,0.82044469,-0.47368178,159.22004,1081.3996)">
        <path
           sodipodi:nodetypes="css"
           id="path6091"
           d="m -408.57143,429.50504 c 0,39.44891 -34.53804,71.42857 -77.14286,71.42857 -42.60483,0 -77.14286,-31.97966 -77.14286,-71.42857"
           style="fill:none;stroke:#000000;stroke-width:0.74137652;stroke-linecap:butt;stroke-linejoin:miter;stroke-miterlimit:4;stroke-opacity:1;stroke-dasharray:none"
           transform="matrix(3.2448103,0,0,3.5043952,2062.54,-1190.2162)" />
        <path
           style="fill:none;stroke:#000000;stroke-width:2.5;stroke-linecap:butt;stroke-linejoin:miter;stroke-miterlimit:4;stroke-opacity:1;stroke-dasharray:none"
           d="m 234.95408,815.63904 c 0,-138.24457 112.06939,-250.31393 250.31394,-250.31394 138.24459,10e-6 250.31395,112.06937 250.31395,250.31395"
           id="path6093"
           sodipodi:nodetypes="css" />
      </g>
      <g
         style="fill:none;stroke:#000000;stroke-width:2.5;stroke-miterlimit:4;stroke-opacity:1;stroke-dasharray:none"
         transform="matrix(-0.82044469,-0.47368178,0.47368396,-0.82044091,523.81412,1108.6029)"
         id="g6095">
        <path
           sodipodi:nodetypes="css"
           id="path6097"
           d="m -408.57143,429.50504 c 0,39.44891 -34.53804,71.42857 -77.14286,71.42857 -42.60483,0 -77.14286,-31.97966 -77.14286,-71.42857"
           style="fill:none;stroke:#000000;stroke-width:0.74137652;stroke-linecap:butt;stroke-linejoin:miter;stroke-miterlimit:4;stroke-opacity:1;stroke-dasharray:none"
           transform="matrix(3.2448103,0,0,3.5043952,2062.54,-1190.2162)" />
        <path
           sodipodi:nodetypes="csc"
           id="path6099"
           d="m -562.85715,429.50504 c 0,-39.44892 34.53803,-71.42858 77.14286,-71.42858 42.60482,0 77.14286,31.97966 77.14286,71.42858"
           style="fill:none;stroke:#000000;stroke-width:0.74137652;stroke-linecap:butt;stroke-linejoin:miter;stroke-miterlimit:4;stroke-opacity:1;stroke-dasharray:none"
           transform="matrix(3.2448103,0,0,3.5043952,2062.54,-690.2162)" />
      </g>
      <path
         transform="matrix(1.0601246,0,0,1.1869716,159.16281,-259.84366)"
         d="m 329.42491,568.25806 c 0,54.02678 -49.03807,97.82415 -109.5296,97.82415 -60.49153,0 -109.5296,-43.79737 -109.5296,-97.82415 0,-54.02679 49.03807,-97.82415 109.5296,-97.82415 60.49153,0 109.5296,43.79736 109.5296,97.82415 z"
         sodipodi:ry="97.82415"
         sodipodi:rx="109.5296"
         sodipodi:cy="568.25806"
         sodipodi:cx="219.89531"
         id="path6101"
         style="fill:none;stroke:#000000;stroke-width:2.11134434;stroke-linecap:butt;stroke-linejoin:miter;stroke-miterlimit:4;stroke-opacity:1;stroke-dasharray:none"
         sodipodi:type="arc" />
      <path
         sodipodi:type="arc"
         style="fill:none;stroke:#000000;stroke-width:1.00977337;stroke-linecap:butt;stroke-linejoin:miter;stroke-miterlimit:4;stroke-opacity:1;stroke-dasharray:none"
         id="path6103"
         sodipodi:cx="219.89531"
         sodipodi:cy="568.25806"
         sodipodi:rx="109.5296"
         sodipodi:ry="97.82415"
         d="m 329.42491,568.25806 c 0,54.02678 -49.03807,97.82415 -109.5296,97.82415 -60.49153,0 -109.5296,-43.79737 -109.5296,-97.82415 0,-54.02679 49.03807,-97.82415 109.5296,-97.82415 60.49153,0 109.5296,43.79736 109.5296,97.82415 z"
         transform="matrix(2.2166241,0,0,2.4818497,-95.146002,-995.66858)" />
      <path
         sodipodi:type="arc"
         style="fill:#ffffff;fill-opacity:1;stroke:#000000;stroke-width:4.19191265;stroke-linecap:butt;stroke-linejoin:miter;stroke-miterlimit:4;stroke-opacity:1;stroke-dasharray:none"
         id="path6105"
         sodipodi:cx="219.89531"
         sodipodi:cy="568.25806"
         sodipodi:rx="109.5296"
         sodipodi:ry="97.82415"
         d="m 329.42491,568.25806 c 0,54.02678 -49.03807,97.82415 -109.5296,97.82415 -60.49153,0 -109.5296,-43.79737 -109.5296,-97.82415 0,-54.02679 49.03807,-97.82415 109.5296,-97.82415 60.49153,0 109.5296,43.79736 109.5296,97.82415 z"
         transform="matrix(0.53395387,0,0,0.59784301,274.86529,74.933414)" />
      <path
         transform="matrix(0.28188573,0,0,0.31561418,330.29389,235.31222)"
         d="m 329.42491,568.25806 c 0,54.02678 -49.03807,97.82415 -109.5296,97.82415 -60.49153,0 -109.5296,-43.79737 -109.5296,-97.82415 0,-54.02679 49.03807,-97.82415 109.5296,-97.82415 60.49153,0 109.5296,43.79736 109.5296,97.82415 z"
         sodipodi:ry="97.82415"
         sodipodi:rx="109.5296"
         sodipodi:cy="568.25806"
         sodipodi:cx="219.89531"
         id="path6107"
         style="fill:#ffffff;fill-opacity:1;stroke:#000000;stroke-width:4.19191265;stroke-linecap:butt;stroke-linejoin:miter;stroke-miterlimit:4;stroke-opacity:1;stroke-dasharray:none"
         sodipodi:type="arc" />
    </g>
    <text
       xml:space="preserve"
       style="font-size:12px;font-style:normal;font-weight:bold;fill:#000000;fill-opacity:1;stroke:none;font-family:Century Schoolbook L;-inkscape-font-specification:Century Schoolbook L Medium;font-stretch:normal;font-variant:normal;text-anchor:start;text-align:start;writing-mode:lr;line-height:125%"
       x="53.510647"
       y="935.30762"
       id="text3981"
       sodipodi:linespacing="125%"><tspan
         sodipodi:role="line"
         id="tspan3983"
         x="53.510647"
         y="935.30762">basket mandala-1-4in</tspan></text>
  </g>
</svg>
